<svg width="28" height="28" viewBox="0 0 28 28" fill="none" xmlns="http://www.w3.org/2000/svg">
<path fill-rule="evenodd" clip-rule="evenodd" d="M23.7992 4.20001C23.4279 4.20001 23.0718 4.34751 22.8093 4.61006C22.5467 4.87261 22.3992 5.22871 22.3992 5.60001V22.4C22.3992 22.7713 22.5467 23.1274 22.8093 23.39C23.0718 23.6525 23.4279 23.8 23.7992 23.8C24.1705 23.8 24.5266 23.6525 24.7892 23.39C25.0517 23.1274 25.1992 22.7713 25.1992 22.4V5.60001C25.1992 5.22871 25.0517 4.87261 24.7892 4.61006C24.5266 4.34751 24.1705 4.20001 23.7992 4.20001ZM13.0094 8.81021C12.747 9.07275 12.5995 9.42878 12.5995 9.80001C12.5995 10.1712 12.747 10.5273 13.0094 10.7898L14.8196 12.6H4.19922C3.82792 12.6 3.47182 12.7475 3.20927 13.0101C2.94672 13.2726 2.79922 13.6287 2.79922 14C2.79922 14.3713 2.94672 14.7274 3.20927 14.99C3.47182 15.2525 3.82792 15.4 4.19922 15.4H14.8196L13.0094 17.2102C12.7544 17.4743 12.6133 17.8279 12.6165 18.195C12.6197 18.562 12.7669 18.9132 13.0265 19.1728C13.286 19.4323 13.6372 19.5796 14.0043 19.5828C14.3713 19.5859 14.725 19.4448 14.989 19.1898L19.189 14.9898C19.4515 14.7273 19.5989 14.3712 19.5989 14C19.5989 13.6288 19.4515 13.2728 19.189 13.0102L14.989 8.81021C14.7265 8.54775 14.3705 8.40031 13.9992 8.40031C13.628 8.40031 13.272 8.54775 13.0094 8.81021Z" fill="#80C7EC"/>
</svg>
