<svg width="27" height="27" viewBox="0 0 27 27" fill="none" xmlns="http://www.w3.org/2000/svg">
<path d="M13.5 2.25C10.3984 2.25 7.875 4.77338 7.875 7.875V11.25H6.75C6.15326 11.25 5.58097 11.4871 5.15901 11.909C4.73705 12.331 4.5 12.9033 4.5 13.5V22.5C4.5 23.0967 4.73705 23.669 5.15901 24.091C5.58097 24.5129 6.15326 24.75 6.75 24.75H20.25C20.8467 24.75 21.419 24.5129 21.841 24.091C22.2629 23.669 22.5 23.0967 22.5 22.5V13.5C22.5 12.9033 22.2629 12.331 21.841 11.909C21.419 11.4871 20.8467 11.25 20.25 11.25H19.125V7.875C19.125 4.77338 16.6016 2.25 13.5 2.25ZM10.125 7.875C10.125 6.01425 11.6392 4.5 13.5 4.5C15.3608 4.5 16.875 6.01425 16.875 7.875V11.25H10.125V7.875ZM14.625 19.9384V22.5H12.375V19.9384C11.9817 19.7131 11.6659 19.374 11.4692 18.9656C11.2725 18.5573 11.2042 18.0989 11.2733 17.651C11.3423 17.203 11.5456 16.7866 11.8561 16.4564C12.1667 16.1263 12.57 15.898 13.0129 15.8017C13.3418 15.729 13.6829 15.731 14.011 15.8077C14.3391 15.8843 14.6458 16.0337 14.9085 16.2446C15.1712 16.4556 15.3831 16.7228 15.5288 17.0267C15.6744 17.3305 15.75 17.6631 15.75 18C15.7494 18.3935 15.645 18.7798 15.4475 19.1201C15.25 19.4604 14.9663 19.7426 14.625 19.9384Z" fill="#80C7EC"/>
</svg>
