<svg width="59" height="79" viewBox="0 0 59 79" fill="none" xmlns="http://www.w3.org/2000/svg">
<path d="M15.1679 4.9375H7.375C5.41903 4.9375 3.54317 5.7178 2.16009 7.10674C0.777006 8.49568 0 10.3795 0 12.3438V71.5938C0 73.558 0.777006 75.4418 2.16009 76.8308C3.54317 78.2197 5.41903 79 7.375 79H51.625C53.581 79 55.4568 78.2197 56.8399 76.8308C58.223 75.4418 59 73.558 59 71.5938V12.3438C59 10.3795 58.223 8.49568 56.8399 7.10674C55.4568 5.7178 53.581 4.9375 51.625 4.9375H43.8321C43.3235 3.4929 42.3813 2.24226 41.1352 1.35795C39.8892 0.473644 38.4008 -0.000802245 36.875 1.01829e-06H22.125C20.5992 -0.000802245 19.1108 0.473644 17.8648 1.35795C16.6187 2.24226 15.6765 3.4929 15.1679 4.9375ZM22.125 4.9375H36.875C37.527 4.9375 38.1523 5.1976 38.6133 5.66058C39.0743 6.12356 39.3333 6.7515 39.3333 7.40625C39.3333 8.061 39.0743 8.68894 38.6133 9.15192C38.1523 9.6149 37.527 9.875 36.875 9.875H22.125C21.473 9.875 20.8477 9.6149 20.3867 9.15192C19.9257 8.68894 19.6667 8.061 19.6667 7.40625C19.6667 6.7515 19.9257 6.12356 20.3867 5.66058C20.8477 5.1976 21.473 4.9375 22.125 4.9375ZM24.5833 32.0938C24.5833 31.439 24.8423 30.8111 25.3034 30.3481C25.7644 29.8851 26.3897 29.625 27.0417 29.625H44.25C44.902 29.625 45.5273 29.8851 45.9883 30.3481C46.4493 30.8111 46.7083 31.439 46.7083 32.0938C46.7083 32.7485 46.4493 33.3764 45.9883 33.8394C45.5273 34.3024 44.902 34.5625 44.25 34.5625H27.0417C26.3897 34.5625 25.7644 34.3024 25.3034 33.8394C24.8423 33.3764 24.5833 32.7485 24.5833 32.0938ZM24.5833 46.9062C24.5833 46.2515 24.8423 45.6236 25.3034 45.1606C25.7644 44.6976 26.3897 44.4375 27.0417 44.4375H44.25C44.902 44.4375 45.5273 44.6976 45.9883 45.1606C46.4493 45.6236 46.7083 46.2515 46.7083 46.9062C46.7083 47.561 46.4493 48.1889 45.9883 48.6519C45.5273 49.1149 44.902 49.375 44.25 49.375H27.0417C26.3897 49.375 25.7644 49.1149 25.3034 48.6519C24.8423 48.1889 24.5833 47.561 24.5833 46.9062ZM24.5833 61.7188C24.5833 61.064 24.8423 60.4361 25.3034 59.9731C25.7644 59.5101 26.3897 59.25 27.0417 59.25H44.25C44.902 59.25 45.5273 59.5101 45.9883 59.9731C46.4493 60.4361 46.7083 61.064 46.7083 61.7188C46.7083 62.3735 46.4493 63.0014 45.9883 63.4644C45.5273 63.9274 44.902 64.1875 44.25 64.1875H27.0417C26.3897 64.1875 25.7644 63.9274 25.3034 63.4644C24.8423 63.0014 24.5833 62.3735 24.5833 61.7188ZM19.6667 32.0938C19.6667 33.0759 19.2782 34.0178 18.5866 34.7123C17.8951 35.4067 16.9572 35.7969 15.9792 35.7969C15.0012 35.7969 14.0632 35.4067 13.3717 34.7123C12.6802 34.0178 12.2917 33.0759 12.2917 32.0938C12.2917 31.1116 12.6802 30.1697 13.3717 29.4752C14.0632 28.7808 15.0012 28.3906 15.9792 28.3906C16.9572 28.3906 17.8951 28.7808 18.5866 29.4752C19.2782 30.1697 19.6667 31.1116 19.6667 32.0938ZM19.6667 46.9062C19.6667 47.8884 19.2782 48.8303 18.5866 49.5248C17.8951 50.2192 16.9572 50.6094 15.9792 50.6094C15.0012 50.6094 14.0632 50.2192 13.3717 49.5248C12.6802 48.8303 12.2917 47.8884 12.2917 46.9062C12.2917 45.9241 12.6802 44.9822 13.3717 44.2877C14.0632 43.5933 15.0012 43.2031 15.9792 43.2031C16.9572 43.2031 17.8951 43.5933 18.5866 44.2877C19.2782 44.9822 19.6667 45.9241 19.6667 46.9062ZM15.9792 65.4219C15.0012 65.4219 14.0632 65.0317 13.3717 64.3372C12.6802 63.6428 12.2917 62.7009 12.2917 61.7188C12.2917 60.7366 12.6802 59.7947 13.3717 59.1002C14.0632 58.4058 15.0012 58.0156 15.9792 58.0156C16.9572 58.0156 17.8951 58.4058 18.5866 59.1002C19.2782 59.7947 19.6667 60.7366 19.6667 61.7188C19.6667 62.7009 19.2782 63.6428 18.5866 64.3372C17.8951 65.0317 16.9572 65.4219 15.9792 65.4219Z" fill="#ECA59B"/>
</svg>
