<?xml version="1.0"?>
<svg xmlns="http://www.w3.org/2000/svg" xmlnsXlink="http://www.w3.org/1999/xlink" xmlnsSvgjs="http://svgjs.com/svgjs" version="1.1" width="512" height="512" x="0" y="0" viewBox="0 0 512 512" style="enable-background:new 0 0 512 512" xml:space="preserve" class=""><g><g xmlns="http://www.w3.org/2000/svg"><path d="m241 432.465v-59.649l-25.829 44.737z" fill="#ffffff" data-original="#000000" style=""/><path d="m358.3 246.464c-.738 19.879-29.268 19.868-30 0v-14.048l-9.359 5.404-47.941 83.034v111.61l137.1-79.152c4.641-2.679 7.5-7.631 7.5-12.99v-158.313l-57.3 33.085z" fill="#ffffff" data-original="#000000" style=""/><path d="m111.4 156.029 113.128 65.318 28.65-49.623-84.481-48.774z" fill="#ffffff" data-original="#000000" style=""/><path d="m263.5 76.876c-4.641-2.679-10.359-2.679-15 0l-49.803 28.753 69.481 40.114 28.651-49.625z" fill="#ffffff" data-original="#000000" style=""/><path d="m374.771 141.117-25.828 44.737 51.656-29.826z" fill="#ffffff" data-original="#000000" style=""/><path d="m96.4 340.322c0 5.359 2.859 10.311 7.5 12.99l33.328 19.241 72.299-125.226-113.127-65.318z" fill="#ffffff" data-original="#000000" style=""/><path d="m256 .836c-141.159 0-256 114.841-256 256 12.87 339.152 499.182 339.06 512-.003 0-141.156-114.841-255.997-256-255.997zm-226 256c-2.18-165.031 179.49-277.498 325.743-202.76l-225.446 390.484c-60.442-40.605-100.297-109.596-100.297-187.724zm226 226c-35.783 0-69.642-8.373-99.743-23.241l225.446-390.484c183.21 122.508 97.632 412.814-125.703 413.725z" fill="#ffffff" data-original="#000000" style=""/></g></g></svg>
