<svg width="27" height="27" viewBox="0 0 27 27" fill="none" xmlns="http://www.w3.org/2000/svg">
<path d="M18.5625 13.5C18.5625 14.8427 18.0291 16.1303 17.0797 17.0797C16.1303 18.0291 14.8427 18.5625 13.5 18.5625C12.1573 18.5625 10.8697 18.0291 9.92027 17.0797C8.97087 16.1303 8.4375 14.8427 8.4375 13.5C8.4375 12.1573 8.97087 10.8697 9.92027 9.92027C10.8697 8.97087 12.1573 8.4375 13.5 8.4375C14.8427 8.4375 16.1303 8.97087 17.0797 9.92027C18.0291 10.8697 18.5625 12.1573 18.5625 13.5Z" fill="white"/>
<path d="M23.625 23.625V7.59375L16.0312 0H6.75C5.85489 0 4.99645 0.355579 4.36351 0.988515C3.73058 1.62145 3.375 2.47989 3.375 3.375V23.625C3.375 24.5201 3.73058 25.3785 4.36351 26.0115C4.99645 26.6444 5.85489 27 6.75 27H20.25C21.1451 27 22.0035 26.6444 22.6365 26.0115C23.2694 25.3785 23.625 24.5201 23.625 23.625ZM16.0312 5.0625C16.0312 5.73383 16.2979 6.37766 16.7726 6.85236C17.2473 7.32707 17.8912 7.59375 18.5625 7.59375H21.9375V23.2116C21.9375 23.2116 20.25 20.25 13.5 20.25C6.75 20.25 5.0625 23.2116 5.0625 23.2116V3.375C5.0625 2.92745 5.24029 2.49822 5.55676 2.18176C5.87322 1.86529 6.30245 1.6875 6.75 1.6875H16.0312V5.0625Z" fill="white"/>
</svg>
