<svg width="21" height="21" viewBox="0 0 21 21" fill="none" xmlns="http://www.w3.org/2000/svg">
<path fill-rule="evenodd" clip-rule="evenodd" d="M10.5 0.875C5.18438 0.875 0.875 5.18438 0.875 10.5C0.875 15.8156 5.18438 20.125 10.5 20.125C15.8156 20.125 20.125 15.8156 20.125 10.5C20.125 5.18438 15.8156 0.875 10.5 0.875ZM13.7436 8.49362C13.903 8.3286 13.9912 8.10757 13.9892 7.87815C13.9872 7.64873 13.8952 7.42927 13.733 7.26703C13.5707 7.1048 13.3513 7.01278 13.1219 7.01079C12.8924 7.00879 12.6714 7.09699 12.5064 7.25638L10.5 9.26275L8.49362 7.25638C8.41291 7.1728 8.31636 7.10614 8.2096 7.06029C8.10285 7.01443 7.98803 6.99029 7.87185 6.98928C7.75567 6.98827 7.64045 7.01041 7.53292 7.05441C7.42538 7.0984 7.32769 7.16337 7.24553 7.24553C7.16337 7.32769 7.0984 7.42538 7.05441 7.53292C7.01041 7.64045 6.98827 7.75567 6.98928 7.87185C6.99029 7.98803 7.01443 8.10285 7.06029 8.2096C7.10614 8.31636 7.1728 8.41291 7.25638 8.49362L9.26275 10.5L7.25638 12.5064C7.1728 12.5871 7.10614 12.6836 7.06029 12.7904C7.01443 12.8972 6.99029 13.012 6.98928 13.1281C6.98827 13.2443 7.01041 13.3596 7.05441 13.4671C7.0984 13.5746 7.16337 13.6723 7.24553 13.7545C7.32769 13.8366 7.42538 13.9016 7.53292 13.9456C7.64045 13.9896 7.75567 14.0117 7.87185 14.0107C7.98803 14.0097 8.10285 13.9856 8.2096 13.9397C8.31636 13.8939 8.41291 13.8272 8.49362 13.7436L10.5 11.7372L12.5064 13.7436C12.6714 13.903 12.8924 13.9912 13.1219 13.9892C13.3513 13.9872 13.5707 13.8952 13.733 13.733C13.8952 13.5707 13.9872 13.3513 13.9892 13.1219C13.9912 12.8924 13.903 12.6714 13.7436 12.5064L11.7372 10.5L13.7436 8.49362Z" fill="#80C7EC"/>
</svg>
