<svg width="23" height="18" viewBox="0 0 23 18" fill="none" xmlns="http://www.w3.org/2000/svg">
<path fill-rule="evenodd" clip-rule="evenodd" d="M19.0104 7.50673L20.3134 5.54698L20.324 5.53639C21.3861 7.17444 21.9749 9.07415 22.0254 11.0258C22.0758 12.9774 21.586 14.905 20.61 16.5957C20.4233 16.919 20.1545 17.1873 19.8308 17.3733C19.5072 17.5593 19.1401 17.6565 18.7667 17.6551H4.09512C3.72539 17.6528 3.36268 17.5539 3.04303 17.368C2.72339 17.1822 2.45795 16.9159 2.27308 16.5957C1.09697 14.5379 0.644981 12.145 0.989414 9.79997C1.33385 7.4549 2.4548 5.29309 4.17297 3.66034C5.89114 2.02759 8.10726 1.01824 10.4668 0.793733C12.8264 0.569229 15.1931 1.14255 17.1884 2.42198L15.2286 3.72495C13.5994 2.90994 11.7509 2.64163 9.95714 2.95979C8.16342 3.27796 6.51996 4.16566 5.27042 5.49129C4.02087 6.81693 3.23176 8.50993 3.02006 10.3193C2.80835 12.1287 3.18534 13.9581 4.09512 15.5364H18.7773C19.4773 14.3217 19.865 12.9523 19.9057 11.5509C19.9464 10.1496 19.6388 8.75999 19.0104 7.50673ZM10.6303 13.2524C10.3731 13.1457 10.1394 12.9895 9.94266 12.7925C9.74568 12.5957 9.58941 12.3621 9.48279 12.1049C9.37617 11.8477 9.32129 11.572 9.32129 11.2935C9.32129 11.0151 9.37617 10.7394 9.48279 10.4822C9.58941 10.225 9.74568 9.99136 9.94266 9.7946L18.9363 3.79883L12.9405 12.7925C12.7438 12.9895 12.5101 13.1457 12.2529 13.2524C11.9957 13.359 11.72 13.4139 11.4416 13.4139C11.1632 13.4139 10.8875 13.359 10.6303 13.2524Z" fill="white"/>
</svg>
