<?xml version="1.0" encoding="iso-8859-1"?>
<!-- Generator: Adobe Illustrator 16.0.0, SVG Export Plug-In . SVG Version: 6.00 Build 0)  -->
<!DOCTYPE svg PUBLIC "-//W3C//DTD SVG 1.1//EN" "http://www.w3.org/Graphics/SVG/1.1/DTD/svg11.dtd">
<svg version="1.1" id="Capa_1" xmlns="http://www.w3.org/2000/svg" xmlns:xlink="http://www.w3.org/1999/xlink" x="0px" y="0px"
	 width="174.941px" height="174.94px" viewBox="0 0 174.941 174.94" style="enable-background:new 0 0 174.941 174.94;"
	 xml:space="preserve">
<g>
	<g>
		<polygon points="74.711,162.757 74.729,162.731 74.699,162.731 		"/>
		<path d="M174.941,114.312l-23.516-23.517l-17.159,17.146l-17.147-17.146l-4.348,4.348c-6.053-3.361-12.629-6.107-19.622-7.886
			c13.521-9.097,22.837-27.023,22.837-43.181c0-22.789-18.486-41.269-41.269-41.269c-22.786,0-41.266,18.474-41.266,41.269
			c0,16.158,9.311,34.084,22.834,43.181C23.949,95.446,0,123.518,0,144.318c0,12.294,37.348,18.426,74.705,18.413l-20.919-20.91
			l17.619-42.6h-0.18l-6.847-7.849c3.307,1.188,6.759,1.899,10.339,1.899c3.571,0,7.021-0.712,10.324-1.894l-6.844,7.837h-0.17
			l17.622,42.6l-20.919,20.916c10.781,0,21.562-0.511,31.441-1.546l10.948,10.948l15.747-15.753c0.725-0.22,1.467-0.42,2.155-0.651
			l16.392,16.404l23.522-23.522l-17.153-17.153L174.941,114.312z M163.92,148.623l-12.495,12.501l-17.159-17.159l-17.147,17.159
			l-12.495-12.501l17.147-17.153l-17.147-17.152l12.495-12.495l17.147,17.153l17.159-17.153l12.495,12.495l-17.159,17.152
			L163.92,148.623z"/>
	</g>
</g>
<g>
</g>
<g>
</g>
<g>
</g>
<g>
</g>
<g>
</g>
<g>
</g>
<g>
</g>
<g>
</g>
<g>
</g>
<g>
</g>
<g>
</g>
<g>
</g>
<g>
</g>
<g>
</g>
<g>
</g>
</svg>
