<svg width="22" height="22" viewBox="0 0 22 22" fill="none" xmlns="http://www.w3.org/2000/svg">
<path d="M11 13.75C12.5188 13.75 13.75 12.5188 13.75 11C13.75 9.48122 12.5188 8.25 11 8.25C9.48122 8.25 8.25 9.48122 8.25 11C8.25 12.5188 9.48122 13.75 11 13.75Z" fill="black"/>
<path d="M16.9649 6.06633C15.0863 4.77812 13.0758 4.125 10.9897 4.125C9.11238 4.125 7.28234 4.68359 5.55027 5.77844C3.80359 6.88488 2.09129 8.89453 0.6875 11C1.82273 12.8906 3.37562 14.8345 4.99297 15.9491C6.84836 17.227 8.86574 17.875 10.9897 17.875C13.0952 17.875 15.1082 17.2275 16.9752 15.9504C18.6188 14.8242 20.1829 12.8829 21.3125 11C20.179 9.13387 18.6098 7.19469 16.9649 6.06633ZM11 15.125C10.1842 15.125 9.38663 14.8831 8.70827 14.4298C8.02992 13.9766 7.50121 13.3323 7.189 12.5786C6.87679 11.8248 6.7951 10.9954 6.95426 10.1953C7.11343 9.39508 7.50629 8.66008 8.08318 8.08318C8.66008 7.50629 9.39508 7.11343 10.1953 6.95426C10.9954 6.7951 11.8248 6.87679 12.5786 7.189C13.3323 7.50121 13.9766 8.02992 14.4298 8.70827C14.8831 9.38663 15.125 10.1842 15.125 11C15.1237 12.0936 14.6888 13.1421 13.9154 13.9154C13.1421 14.6888 12.0936 15.1237 11 15.125Z" fill="black"/>
</svg>
