<svg width="19" height="18" viewBox="0 0 19 18" fill="none" xmlns="http://www.w3.org/2000/svg">
<path d="M17.9496 14.5412L15.6558 12.229L17.9496 9.91688" stroke="white" stroke-width="1.2" stroke-linecap="round" stroke-linejoin="round"/>
<path d="M14.2793 14.5412L11.9855 12.229L14.2793 9.91688" stroke="white" stroke-width="1.2" stroke-linecap="round" stroke-linejoin="round"/>
<path d="M17.8497 8.06716V2.05557C17.8497 1.81028 17.7563 1.57504 17.59 1.40159C17.4237 1.22815 17.1981 1.1307 16.9629 1.1307H1.88683C1.65163 1.1307 1.42606 1.22815 1.25975 1.40159C1.09343 1.57504 1 1.81028 1 2.05557V15.9285C1 16.1738 1.09343 16.409 1.25975 16.5825C1.42606 16.7559 1.65163 16.8533 1.88683 16.8533H11.4069" stroke="white" stroke-width="1.2" stroke-linecap="round" stroke-linejoin="round"/>
<mask id="path-4-inside-1_1_4" fill="white">
<path d="M9.42221 10.7816L9.42265 10.8241C9.42336 11.4133 9.21177 11.9813 8.82981 12.4154L8.83114 12.4135C8.43326 12.8705 7.89518 13.1688 7.30934 13.257L7.2956 13.2588V14.3502C7.2956 14.4008 7.2763 14.4494 7.24196 14.4852C7.20762 14.521 7.16104 14.5412 7.11247 14.5412H7.10493H7.10537H6.30412C6.25385 14.5406 6.2058 14.5195 6.17025 14.4824C6.1347 14.4453 6.11448 14.3952 6.1139 14.3428V13.2588C5.8467 13.2216 5.58414 13.1543 5.33083 13.0581L5.35699 13.0669C4.97862 12.9349 4.6236 12.739 4.3061 12.487L4.31497 12.494C4.218 12.4208 4.12489 12.3422 4.03606 12.2586L4.03917 12.2614C3.9898 12.212 3.95522 12.175 3.93541 12.1504C3.90335 12.1171 3.88443 12.0726 3.88237 12.0255C3.88032 11.9784 3.89529 11.9322 3.92432 11.8961L3.92388 11.8965L4.53535 11.0604C4.55159 11.0386 4.57217 11.0207 4.59566 11.0079C4.61916 10.9952 4.64502 10.9878 4.67148 10.9864H4.67192C4.69821 10.9814 4.72533 10.984 4.75033 10.9938C4.77534 11.0037 4.79729 11.0205 4.81381 11.0424L4.81426 11.0429L4.82578 11.0549C5.2267 11.4377 5.71737 11.7035 6.24825 11.8253L6.26865 11.8295C6.40079 11.8609 6.55244 11.8789 6.70807 11.8789L6.73557 11.8794C7.04196 11.8794 7.32575 11.7795 7.55943 11.6093L7.55455 11.6126C7.67241 11.5295 7.76788 11.4163 7.83185 11.2837C7.89581 11.1512 7.92614 11.0038 7.91992 10.8556V10.8574C7.91992 10.7358 7.88667 10.6225 7.82947 10.5268L7.8308 10.5296C7.77674 10.4341 7.71001 10.3471 7.63259 10.2711L7.63215 10.2706C7.52907 10.1804 7.41574 10.1039 7.29471 10.0426L7.28496 10.038C7.12651 9.95353 6.99644 9.88741 6.89475 9.83962C6.79306 9.79184 6.63476 9.72479 6.41986 9.63847C6.26555 9.57249 6.14376 9.52085 6.05448 9.48355C5.96521 9.44625 5.84342 9.39153 5.68911 9.31939C5.5348 9.24725 5.41109 9.18328 5.31797 9.12748C5.22486 9.07168 5.11297 8.99846 4.98231 8.90783C4.86785 8.83091 4.76078 8.74264 4.66261 8.64424L4.66305 8.6447C4.57395 8.55068 4.48959 8.45189 4.41031 8.34875L4.40454 8.34135C4.32057 8.2352 4.2509 8.11758 4.19747 7.99175L4.19392 7.98204C4.14242 7.85432 4.10162 7.72219 4.07198 7.58712L4.06888 7.57048C4.03495 7.41544 4.018 7.25689 4.01833 7.09787V7.08678V7.0729C4.01833 6.49486 4.24048 5.97047 4.60097 5.5885L4.60053 5.58896C5.00235 5.1533 5.52745 4.86337 6.09882 4.76168L6.11479 4.75936V3.64259V3.64074C6.11479 3.58664 6.13651 3.53762 6.1711 3.50294C6.18819 3.48437 6.20871 3.46959 6.23142 3.4595C6.25412 3.44941 6.27855 3.44421 6.30324 3.44421H7.11335C7.21445 3.44421 7.29648 3.52976 7.29648 3.6352V3.64306V3.64259V4.73254C7.54036 4.75936 7.76295 4.80977 7.97624 4.88191L7.95274 4.87497C8.15626 4.93971 8.32742 5.01046 8.49193 5.09278L8.46887 5.0826C8.61431 5.15798 8.73802 5.2352 8.85508 5.32122L8.84621 5.31474C8.96446 5.40168 9.04161 5.46149 9.07768 5.49417C9.11374 5.52684 9.14345 5.55567 9.1668 5.58064C9.1987 5.60928 9.21933 5.64919 9.22473 5.69272C9.23013 5.73624 9.21992 5.78032 9.19607 5.81648L9.19651 5.81602L8.71674 6.72053C8.70476 6.74833 8.68578 6.77222 8.6618 6.78965C8.63783 6.80708 8.60976 6.81739 8.58061 6.81949H8.58017C8.55201 6.8256 8.52288 6.82485 8.49504 6.81731C8.4672 6.80978 8.4414 6.79565 8.41965 6.77602H8.42009C8.40827 6.76369 8.37959 6.73903 8.33407 6.70203C8.28855 6.66504 8.21139 6.61032 8.10261 6.53787C7.99706 6.46731 7.88732 6.40383 7.77404 6.34781L7.75542 6.33949C7.61893 6.27404 7.47705 6.22157 7.33151 6.18272L7.31289 6.17856C7.1476 6.13137 6.977 6.10742 6.80562 6.10735H6.80518C6.4768 6.09166 6.15226 6.18633 5.87933 6.37741L5.8851 6.37371C5.73414 6.47831 5.6218 6.63336 5.56652 6.81336C5.51124 6.99337 5.51632 7.18763 5.58092 7.36423L5.57914 7.35868C5.61994 7.46042 5.67935 7.54643 5.75385 7.61533L5.75474 7.6158C5.82612 7.68562 5.90239 7.75267 5.98221 7.8151L5.9893 7.82019C6.08463 7.88863 6.19416 7.95291 6.309 8.00655L6.3223 8.0121C6.4707 8.08424 6.59042 8.14004 6.68147 8.1795C6.77252 8.21896 6.91116 8.27568 7.09739 8.34967C7.30727 8.43229 7.46764 8.49734 7.57849 8.54482C7.68935 8.59229 7.83981 8.66459 8.02989 8.7617C8.19 8.84011 8.34429 8.93084 8.49148 9.03314L8.47862 9.02482C8.61608 9.12656 8.7358 9.22829 8.84976 9.33696L8.8471 9.33419C8.96993 9.44609 9.07457 9.57557 9.15793 9.72032L9.16192 9.72771C9.23553 9.86321 9.29894 10.0209 9.34505 10.186L9.34904 10.2017C9.39738 10.3705 9.42487 10.5647 9.42487 10.7654V10.7848V10.7839L9.42221 10.7816Z"/>
</mask>
<path d="M9.42221 10.7816L9.42265 10.8241C9.42336 11.4133 9.21177 11.9813 8.82981 12.4154L8.83114 12.4135C8.43326 12.8705 7.89518 13.1688 7.30934 13.257L7.2956 13.2588V14.3502C7.2956 14.4008 7.2763 14.4494 7.24196 14.4852C7.20762 14.521 7.16104 14.5412 7.11247 14.5412H7.10493H7.10537H6.30412C6.25385 14.5406 6.2058 14.5195 6.17025 14.4824C6.1347 14.4453 6.11448 14.3952 6.1139 14.3428V13.2588C5.8467 13.2216 5.58414 13.1543 5.33083 13.0581L5.35699 13.0669C4.97862 12.9349 4.6236 12.739 4.3061 12.487L4.31497 12.494C4.218 12.4208 4.12489 12.3422 4.03606 12.2586L4.03917 12.2614C3.9898 12.212 3.95522 12.175 3.93541 12.1504C3.90335 12.1171 3.88443 12.0726 3.88237 12.0255C3.88032 11.9784 3.89529 11.9322 3.92432 11.8961L3.92388 11.8965L4.53535 11.0604C4.55159 11.0386 4.57217 11.0207 4.59566 11.0079C4.61916 10.9952 4.64502 10.9878 4.67148 10.9864H4.67192C4.69821 10.9814 4.72533 10.984 4.75033 10.9938C4.77534 11.0037 4.79729 11.0205 4.81381 11.0424L4.81426 11.0429L4.82578 11.0549C5.2267 11.4377 5.71737 11.7035 6.24825 11.8253L6.26865 11.8295C6.40079 11.8609 6.55244 11.8789 6.70807 11.8789L6.73557 11.8794C7.04196 11.8794 7.32575 11.7795 7.55943 11.6093L7.55455 11.6126C7.67241 11.5295 7.76788 11.4163 7.83185 11.2837C7.89581 11.1512 7.92614 11.0038 7.91992 10.8556V10.8574C7.91992 10.7358 7.88667 10.6225 7.82947 10.5268L7.8308 10.5296C7.77674 10.4341 7.71001 10.3471 7.63259 10.2711L7.63215 10.2706C7.52907 10.1804 7.41574 10.1039 7.29471 10.0426L7.28496 10.038C7.12651 9.95353 6.99644 9.88741 6.89475 9.83962C6.79306 9.79184 6.63476 9.72479 6.41986 9.63847C6.26555 9.57249 6.14376 9.52085 6.05448 9.48355C5.96521 9.44625 5.84342 9.39153 5.68911 9.31939C5.5348 9.24725 5.41109 9.18328 5.31797 9.12748C5.22486 9.07168 5.11297 8.99846 4.98231 8.90783C4.86785 8.83091 4.76078 8.74264 4.66261 8.64424L4.66305 8.6447C4.57395 8.55068 4.48959 8.45189 4.41031 8.34875L4.40454 8.34135C4.32057 8.2352 4.2509 8.11758 4.19747 7.99175L4.19392 7.98204C4.14242 7.85432 4.10162 7.72219 4.07198 7.58712L4.06888 7.57048C4.03495 7.41544 4.018 7.25689 4.01833 7.09787V7.08678V7.0729C4.01833 6.49486 4.24048 5.97047 4.60097 5.5885L4.60053 5.58896C5.00235 5.1533 5.52745 4.86337 6.09882 4.76168L6.11479 4.75936V3.64259V3.64074C6.11479 3.58664 6.13651 3.53762 6.1711 3.50294C6.18819 3.48437 6.20871 3.46959 6.23142 3.4595C6.25412 3.44941 6.27855 3.44421 6.30324 3.44421H7.11335C7.21445 3.44421 7.29648 3.52976 7.29648 3.6352V3.64306V3.64259V4.73254C7.54036 4.75936 7.76295 4.80977 7.97624 4.88191L7.95274 4.87497C8.15626 4.93971 8.32742 5.01046 8.49193 5.09278L8.46887 5.0826C8.61431 5.15798 8.73802 5.2352 8.85508 5.32122L8.84621 5.31474C8.96446 5.40168 9.04161 5.46149 9.07768 5.49417C9.11374 5.52684 9.14345 5.55567 9.1668 5.58064C9.1987 5.60928 9.21933 5.64919 9.22473 5.69272C9.23013 5.73624 9.21992 5.78032 9.19607 5.81648L9.19651 5.81602L8.71674 6.72053C8.70476 6.74833 8.68578 6.77222 8.6618 6.78965C8.63783 6.80708 8.60976 6.81739 8.58061 6.81949H8.58017C8.55201 6.8256 8.52288 6.82485 8.49504 6.81731C8.4672 6.80978 8.4414 6.79565 8.41965 6.77602H8.42009C8.40827 6.76369 8.37959 6.73903 8.33407 6.70203C8.28855 6.66504 8.21139 6.61032 8.10261 6.53787C7.99706 6.46731 7.88732 6.40383 7.77404 6.34781L7.75542 6.33949C7.61893 6.27404 7.47705 6.22157 7.33151 6.18272L7.31289 6.17856C7.1476 6.13137 6.977 6.10742 6.80562 6.10735H6.80518C6.4768 6.09166 6.15226 6.18633 5.87933 6.37741L5.8851 6.37371C5.73414 6.47831 5.6218 6.63336 5.56652 6.81336C5.51124 6.99337 5.51632 7.18763 5.58092 7.36423L5.57914 7.35868C5.61994 7.46042 5.67935 7.54643 5.75385 7.61533L5.75474 7.6158C5.82612 7.68562 5.90239 7.75267 5.98221 7.8151L5.9893 7.82019C6.08463 7.88863 6.19416 7.95291 6.309 8.00655L6.3223 8.0121C6.4707 8.08424 6.59042 8.14004 6.68147 8.1795C6.77252 8.21896 6.91116 8.27568 7.09739 8.34967C7.30727 8.43229 7.46764 8.49734 7.57849 8.54482C7.68935 8.59229 7.83981 8.66459 8.02989 8.7617C8.19 8.84011 8.34429 8.93084 8.49148 9.03314L8.47862 9.02482C8.61608 9.12656 8.7358 9.22829 8.84976 9.33696L8.8471 9.33419C8.96993 9.44609 9.07457 9.57557 9.15793 9.72032L9.16192 9.72771C9.23553 9.86321 9.29894 10.0209 9.34505 10.186L9.34904 10.2017C9.39738 10.3705 9.42487 10.5647 9.42487 10.7654V10.7848V10.7839L9.42221 10.7816Z" fill="#6E768C" stroke="white" stroke-width="2" mask="url(#path-4-inside-1_1_4)"/>
</svg>
