<svg width="33" height="31" viewBox="0 0 33 31" fill="none" xmlns="http://www.w3.org/2000/svg">
<path d="M2 17.24V6.91001C2 6.26001 4.09 5.07001 7.5 5.07001C10.91 5.07001 13 6.27001 13 6.91001V8.70001C13.6626 8.59763 14.3302 8.53087 15 8.50001V6.91001C15 4.39001 11.23 3.07001 7.5 3.07001C3.77 3.07001 0 4.40001 0 6.91001V17.24C0 19.4 2.77 20.67 5.9 21V19C3.46 18.68 2 17.78 2 17.24Z" fill="#FEFEFE"/>
<path d="M16 9.85001C11.07 9.85001 7.35 11.73 7.35 14.23V26.54C7.35 29.04 11.07 30.92 16 30.92C20.93 30.92 24.65 29.04 24.65 26.54V14.23C24.65 11.73 20.93 9.85001 16 9.85001V9.85001ZM22.65 17.52C21.8 18.52 19.23 19.52 16 19.52C14.6489 19.534 13.3026 19.359 12 19V20.46C13.3088 20.7811 14.6524 20.939 16 20.93C18.3172 21.024 20.6163 20.4847 22.65 19.37V22.49C21.8 23.49 19.23 24.49 16 24.49C14.6485 24.5008 13.3021 24.3224 12 23.96V25.42C13.3088 25.7411 14.6524 25.899 16 25.89C18.3172 25.984 20.6163 25.4447 22.65 24.33V26.62C22.65 27.57 20 29 16 29C12 29 9.35 27.57 9.35 26.62V14.23C9.35 13.28 12 11.85 16 11.85C20 11.85 22.65 13.28 22.65 14.23V17.52Z" fill="#FEFEFE"/>
<path d="M19 6.91C19 6.58 19.55 6.11 20.54 5.73V5C20.5422 4.52664 20.5891 4.05454 20.68 3.59C18.55 4.19 17 5.3 17 6.91V8.5C17.6698 8.53086 18.3374 8.59762 19 8.7V6.91Z" fill="#FEFEFE"/>
<path d="M30 12.22V17.22C30 17.76 28.54 18.66 26.1 18.95V20.95C29.23 20.63 32 19.35 32 17.2V11.3C31.3826 11.704 30.7085 12.0141 30 12.22V12.22Z" fill="#FEFEFE"/>
<path d="M28 10C30.7614 10 33 7.76142 33 5C33 2.23858 30.7614 0 28 0C25.2386 0 23 2.23858 23 5C23 7.76142 25.2386 10 28 10Z" fill="#FEFEFE"/>
</svg>
