<svg width="21" height="18" viewBox="0 0 21 18" fill="none" xmlns="http://www.w3.org/2000/svg">
<path d="M13.5398 14.867L16.0477 12.4959L13.5398 10.1249" stroke="white" stroke-width="1.2" stroke-linecap="round" stroke-linejoin="round"/>
<path d="M17.5525 14.867L20.0604 12.4959L17.5525 10.1249" stroke="white" stroke-width="1.2" stroke-linecap="round" stroke-linejoin="round"/>
<path d="M20.0604 8.22799V2.06318C20.0604 1.81164 19.9547 1.5704 19.7666 1.39253C19.5785 1.21467 19.3233 1.11475 19.0572 1.11475H2.00318C1.73712 1.11475 1.48196 1.21467 1.29382 1.39253C1.10569 1.5704 1 1.81164 1 2.06318V16.2897C1 16.5412 1.10569 16.7824 1.29382 16.9603C1.48196 17.1382 1.73712 17.2381 2.00318 17.2381H12.7723" stroke="white" stroke-width="1.2" stroke-linecap="round" stroke-linejoin="round"/>
<mask id="path-4-inside-1_1_4" fill="white">
<path d="M10.5272 11.0116L10.5277 11.0552C10.5285 11.6594 10.2892 12.2418 9.8571 12.687L9.8586 12.6851C9.40852 13.1538 8.79984 13.4596 8.13714 13.5501L8.12159 13.552V14.6711C8.12159 14.7231 8.09977 14.7729 8.06092 14.8096C8.02207 14.8463 7.96938 14.867 7.91444 14.867H7.90591H7.90641H7.00004C6.94317 14.8664 6.88882 14.8447 6.8486 14.8067C6.80839 14.7687 6.78551 14.7173 6.78486 14.6635V13.552C6.48259 13.5138 6.18559 13.4448 5.89905 13.3462L5.92864 13.3552C5.50062 13.2198 5.09902 13.0189 4.73987 12.7605L4.7499 12.7676C4.64021 12.6926 4.53489 12.612 4.4344 12.5262L4.43792 12.5291C4.38207 12.4785 4.34295 12.4406 4.32054 12.4153C4.28428 12.3812 4.26287 12.3355 4.26055 12.2872C4.25823 12.2389 4.27516 12.1915 4.308 12.1545L4.3075 12.1549L4.9992 11.2976C5.01757 11.2752 5.04084 11.2568 5.06742 11.2437C5.094 11.2306 5.12325 11.2231 5.15318 11.2217H5.15369C5.18343 11.2165 5.2141 11.2191 5.24239 11.2292C5.27068 11.2394 5.2955 11.2566 5.31419 11.2791L5.3147 11.2795L5.32774 11.2919C5.78126 11.6844 6.3363 11.957 6.93684 12.0819L6.95991 12.0862C7.10939 12.1184 7.28093 12.1369 7.45699 12.1369L7.48809 12.1374C7.83468 12.1374 8.1557 12.035 8.42004 11.8604L8.41452 11.8638C8.54785 11.7786 8.65585 11.6625 8.7282 11.5266C8.80056 11.3906 8.83486 11.2395 8.82783 11.0875V11.0894C8.82783 10.9647 8.79021 10.8485 8.72551 10.7503L8.72701 10.7532C8.66587 10.6552 8.59038 10.566 8.5028 10.4881L8.5023 10.4876C8.38571 10.3951 8.2575 10.3166 8.12059 10.2538L8.10956 10.2491C7.93032 10.1624 7.78319 10.0946 7.66816 10.0456C7.55313 9.99662 7.37406 9.92786 7.13095 9.83934C6.9564 9.77168 6.81863 9.71873 6.71764 9.68047C6.61666 9.64222 6.47889 9.58611 6.30433 9.51213C6.12978 9.43815 5.98984 9.37255 5.8845 9.31533C5.77917 9.25811 5.6526 9.18302 5.5048 9.09008C5.37532 9.0112 5.25421 8.92068 5.14315 8.81977L5.14365 8.82025C5.04286 8.72382 4.94743 8.62252 4.85775 8.51675L4.85123 8.50916C4.75624 8.4003 4.67743 8.27968 4.61698 8.15065L4.61297 8.1407C4.55471 8.00972 4.50856 7.87422 4.47503 7.73572L4.47152 7.71864C4.43315 7.55966 4.41396 7.39707 4.41434 7.23399V7.22261V7.20839C4.41434 6.61562 4.66564 6.07786 5.07343 5.68615L5.07293 5.68663C5.52747 5.23986 6.12147 4.94254 6.7678 4.83826L6.78586 4.83588V3.69065V3.68876C6.78586 3.63327 6.81044 3.58301 6.84956 3.54744C6.8689 3.5284 6.89211 3.51324 6.91779 3.50289C6.94348 3.49254 6.97111 3.48721 6.99904 3.48721H7.91544C8.0298 3.48721 8.1226 3.57494 8.1226 3.68307V3.69113V3.69065V4.80838C8.39847 4.83588 8.65027 4.88757 8.89154 4.96155L8.86495 4.95444C9.09518 5.02083 9.28879 5.09338 9.47488 5.17779L9.4488 5.16736C9.61332 5.24466 9.75327 5.32385 9.88569 5.41206L9.87566 5.40542C10.0094 5.49457 10.0967 5.5559 10.1375 5.58941C10.1783 5.62293 10.2119 5.65248 10.2383 5.67809C10.2744 5.70746 10.2977 5.74839 10.3038 5.79303C10.3099 5.83766 10.2984 5.88286 10.2714 5.91994L10.2719 5.91947L9.72919 6.84703C9.71565 6.87555 9.69417 6.90004 9.66705 6.91792C9.63993 6.93579 9.60818 6.94637 9.5752 6.94852H9.5747C9.54285 6.95478 9.5099 6.95402 9.47841 6.94628C9.44691 6.93855 9.41773 6.92406 9.39313 6.90394H9.39363C9.38025 6.89129 9.34782 6.866 9.29632 6.82807C9.24482 6.79013 9.15755 6.73401 9.03449 6.65972C8.91509 6.58736 8.79095 6.52227 8.66281 6.46482L8.64174 6.45628C8.48735 6.38916 8.32685 6.33536 8.16222 6.29552L8.14116 6.29125C7.95418 6.24286 7.7612 6.2183 7.56734 6.21822H7.56684C7.19537 6.20214 6.82825 6.29922 6.51952 6.49517L6.52604 6.49137C6.35527 6.59864 6.22819 6.75764 6.16566 6.94223C6.10312 7.12683 6.10887 7.32604 6.18195 7.50714L6.17994 7.50145C6.22609 7.60578 6.2933 7.69398 6.37757 7.76464L6.37857 7.76512C6.45932 7.83672 6.5456 7.90548 6.63588 7.9695L6.64391 7.97472C6.75175 8.0449 6.87564 8.11082 7.00556 8.16583L7.0206 8.17152C7.18847 8.2455 7.3239 8.30272 7.42689 8.34319C7.52989 8.38365 7.68672 8.44182 7.89738 8.5177C8.1348 8.60242 8.31621 8.66913 8.44161 8.71782C8.56701 8.7665 8.73721 8.84064 8.95223 8.94022C9.13334 9.02064 9.30788 9.11368 9.47438 9.21859L9.45984 9.21005C9.61533 9.31438 9.75076 9.41871 9.87967 9.53015L9.87666 9.5273C10.0156 9.64206 10.134 9.77484 10.2283 9.92327L10.2328 9.93086C10.3161 10.0698 10.3878 10.2315 10.4399 10.4008L10.4445 10.4169C10.4991 10.59 10.5302 10.7892 10.5302 10.995V11.0149V11.014L10.5272 11.0116Z"/>
</mask>
<path d="M10.5272 11.0116L10.5277 11.0552C10.5285 11.6594 10.2892 12.2418 9.8571 12.687L9.8586 12.6851C9.40852 13.1538 8.79984 13.4596 8.13714 13.5501L8.12159 13.552V14.6711C8.12159 14.7231 8.09977 14.7729 8.06092 14.8096C8.02207 14.8463 7.96938 14.867 7.91444 14.867H7.90591H7.90641H7.00004C6.94317 14.8664 6.88882 14.8447 6.8486 14.8067C6.80839 14.7687 6.78551 14.7173 6.78486 14.6635V13.552C6.48259 13.5138 6.18559 13.4448 5.89905 13.3462L5.92864 13.3552C5.50062 13.2198 5.09902 13.0189 4.73987 12.7605L4.7499 12.7676C4.64021 12.6926 4.53489 12.612 4.4344 12.5262L4.43792 12.5291C4.38207 12.4785 4.34295 12.4406 4.32054 12.4153C4.28428 12.3812 4.26287 12.3355 4.26055 12.2872C4.25823 12.2389 4.27516 12.1915 4.308 12.1545L4.3075 12.1549L4.9992 11.2976C5.01757 11.2752 5.04084 11.2568 5.06742 11.2437C5.094 11.2306 5.12325 11.2231 5.15318 11.2217H5.15369C5.18343 11.2165 5.2141 11.2191 5.24239 11.2292C5.27068 11.2394 5.2955 11.2566 5.31419 11.2791L5.3147 11.2795L5.32774 11.2919C5.78126 11.6844 6.3363 11.957 6.93684 12.0819L6.95991 12.0862C7.10939 12.1184 7.28093 12.1369 7.45699 12.1369L7.48809 12.1374C7.83468 12.1374 8.1557 12.035 8.42004 11.8604L8.41452 11.8638C8.54785 11.7786 8.65585 11.6625 8.7282 11.5266C8.80056 11.3906 8.83486 11.2395 8.82783 11.0875V11.0894C8.82783 10.9647 8.79021 10.8485 8.72551 10.7503L8.72701 10.7532C8.66587 10.6552 8.59038 10.566 8.5028 10.4881L8.5023 10.4876C8.38571 10.3951 8.2575 10.3166 8.12059 10.2538L8.10956 10.2491C7.93032 10.1624 7.78319 10.0946 7.66816 10.0456C7.55313 9.99662 7.37406 9.92786 7.13095 9.83934C6.9564 9.77168 6.81863 9.71873 6.71764 9.68047C6.61666 9.64222 6.47889 9.58611 6.30433 9.51213C6.12978 9.43815 5.98984 9.37255 5.8845 9.31533C5.77917 9.25811 5.6526 9.18302 5.5048 9.09008C5.37532 9.0112 5.25421 8.92068 5.14315 8.81977L5.14365 8.82025C5.04286 8.72382 4.94743 8.62252 4.85775 8.51675L4.85123 8.50916C4.75624 8.4003 4.67743 8.27968 4.61698 8.15065L4.61297 8.1407C4.55471 8.00972 4.50856 7.87422 4.47503 7.73572L4.47152 7.71864C4.43315 7.55966 4.41396 7.39707 4.41434 7.23399V7.22261V7.20839C4.41434 6.61562 4.66564 6.07786 5.07343 5.68615L5.07293 5.68663C5.52747 5.23986 6.12147 4.94254 6.7678 4.83826L6.78586 4.83588V3.69065V3.68876C6.78586 3.63327 6.81044 3.58301 6.84956 3.54744C6.8689 3.5284 6.89211 3.51324 6.91779 3.50289C6.94348 3.49254 6.97111 3.48721 6.99904 3.48721H7.91544C8.0298 3.48721 8.1226 3.57494 8.1226 3.68307V3.69113V3.69065V4.80838C8.39847 4.83588 8.65027 4.88757 8.89154 4.96155L8.86495 4.95444C9.09518 5.02083 9.28879 5.09338 9.47488 5.17779L9.4488 5.16736C9.61332 5.24466 9.75327 5.32385 9.88569 5.41206L9.87566 5.40542C10.0094 5.49457 10.0967 5.5559 10.1375 5.58941C10.1783 5.62293 10.2119 5.65248 10.2383 5.67809C10.2744 5.70746 10.2977 5.74839 10.3038 5.79303C10.3099 5.83766 10.2984 5.88286 10.2714 5.91994L10.2719 5.91947L9.72919 6.84703C9.71565 6.87555 9.69417 6.90004 9.66705 6.91792C9.63993 6.93579 9.60818 6.94637 9.5752 6.94852H9.5747C9.54285 6.95478 9.5099 6.95402 9.47841 6.94628C9.44691 6.93855 9.41773 6.92406 9.39313 6.90394H9.39363C9.38025 6.89129 9.34782 6.866 9.29632 6.82807C9.24482 6.79013 9.15755 6.73401 9.03449 6.65972C8.91509 6.58736 8.79095 6.52227 8.66281 6.46482L8.64174 6.45628C8.48735 6.38916 8.32685 6.33536 8.16222 6.29552L8.14116 6.29125C7.95418 6.24286 7.7612 6.2183 7.56734 6.21822H7.56684C7.19537 6.20214 6.82825 6.29922 6.51952 6.49517L6.52604 6.49137C6.35527 6.59864 6.22819 6.75764 6.16566 6.94223C6.10312 7.12683 6.10887 7.32604 6.18195 7.50714L6.17994 7.50145C6.22609 7.60578 6.2933 7.69398 6.37757 7.76464L6.37857 7.76512C6.45932 7.83672 6.5456 7.90548 6.63588 7.9695L6.64391 7.97472C6.75175 8.0449 6.87564 8.11082 7.00556 8.16583L7.0206 8.17152C7.18847 8.2455 7.3239 8.30272 7.42689 8.34319C7.52989 8.38365 7.68672 8.44182 7.89738 8.5177C8.1348 8.60242 8.31621 8.66913 8.44161 8.71782C8.56701 8.7665 8.73721 8.84064 8.95223 8.94022C9.13334 9.02064 9.30788 9.11368 9.47438 9.21859L9.45984 9.21005C9.61533 9.31438 9.75076 9.41871 9.87967 9.53015L9.87666 9.5273C10.0156 9.64206 10.134 9.77484 10.2283 9.92327L10.2328 9.93086C10.3161 10.0698 10.3878 10.2315 10.4399 10.4008L10.4445 10.4169C10.4991 10.59 10.5302 10.7892 10.5302 10.995V11.0149V11.014L10.5272 11.0116Z" stroke="white" stroke-width="2" mask="url(#path-4-inside-1_1_4)"/>
</svg>
