<svg width="28" height="23" viewBox="0 0 28 23" fill="none" xmlns="http://www.w3.org/2000/svg">
<path d="M6.66108 21.0671C8.224 21.0671 9.49101 19.8197 9.49101 18.281C9.49101 16.7423 8.224 15.4949 6.66108 15.4949C5.09815 15.4949 3.83115 16.7423 3.83115 18.281C3.83115 19.8197 5.09815 21.0671 6.66108 21.0671Z" stroke="white" stroke-width="2" stroke-linecap="round" stroke-linejoin="round"/>
<path d="M20.8083 21.0671C22.3712 21.0671 23.6382 19.8197 23.6382 18.281C23.6382 16.7423 22.3712 15.4949 20.8083 15.4949C19.2454 15.4949 17.9784 16.7423 17.9784 18.281C17.9784 19.8197 19.2454 21.0671 20.8083 21.0671Z" stroke="white" stroke-width="2" stroke-linecap="round" stroke-linejoin="round"/>
<path d="M10.9048 7.13663L8.07482 9.92272M3.82993 18.281H1V2.9575C1 2.58804 1.14908 2.23371 1.41443 1.97247C1.67979 1.71122 2.03969 1.56445 2.41496 1.56445H15.1496V9.92272H8.07482L10.9048 12.7088L3.82993 18.281Z" stroke="white" stroke-width="2" stroke-linecap="round" stroke-linejoin="round"/>
<path d="M9.4906 18.2808H17.9804" stroke="white" stroke-width="2" stroke-linecap="round" stroke-linejoin="round"/>
<path d="M15.15 2.9574H22.2249L26.4698 9.92262V18.2809H23.6398" stroke="white" stroke-width="2" stroke-linecap="round" stroke-linejoin="round"/>
</svg>
