<svg width="29" height="27" viewBox="0 0 29 27" fill="none" xmlns="http://www.w3.org/2000/svg">
<path d="M27.8801 6.44219L17.8801 0.942188C17.7325 0.860955 17.5667 0.818359 17.3981 0.818359C17.2296 0.818359 17.0638 0.860955 16.9161 0.942188L6.91613 6.44219C6.75934 6.52851 6.62859 6.65534 6.53753 6.80942C6.44647 6.96351 6.39844 7.13921 6.39844 7.31819C6.39844 7.49717 6.44647 7.67287 6.53753 7.82696C6.62859 7.98104 6.75934 8.10786 6.91613 8.19419L16.3981 13.4092V24.1282L13.3621 22.4582L12.3981 24.2092L16.9161 26.6942C17.0637 26.7756 17.2296 26.8183 17.3981 26.8183C17.5667 26.8183 17.7325 26.7756 17.8801 26.6942L27.8801 21.1942C28.037 21.1079 28.1678 20.9811 28.2589 20.827C28.35 20.6729 28.3981 20.4972 28.3981 20.3182V7.31819C28.3981 7.13918 28.35 6.96345 28.2589 6.80937C28.1678 6.65528 28.037 6.52847 27.8801 6.44219ZM17.3981 2.96019L25.3231 7.31819L17.3981 11.6762L9.47313 7.31819L17.3981 2.96019ZM26.3981 19.7272L18.3981 24.1272V13.4082L26.3981 9.00819V19.7272Z" fill="white"/>
<path d="M8.39844 13.8184H0.398438V11.8184H8.39844V13.8184Z" fill="white"/>
<path d="M10.3984 21.8184H2.39844V19.8184H10.3984V21.8184Z" fill="white"/>
<path d="M12.3984 17.8184H4.39844V15.8184H12.3984V17.8184Z" fill="white"/>
</svg>
