<svg width="30" height="28" viewBox="0 0 30 28" fill="none" xmlns="http://www.w3.org/2000/svg">
<path d="M23.625 19.2518H6.39375C6.1875 19.2518 6.01875 19.4487 6.01875 19.6893L6.01406 22.3143C6.01406 22.5549 6.18281 22.7518 6.38906 22.7518H23.625C23.8312 22.7518 24 22.5549 24 22.3143V19.6893C24 19.4487 23.8312 19.2518 23.625 19.2518ZM23.625 24.5018H6.37969C6.17344 24.5018 6.00469 24.6987 6.00469 24.9393L6 27.5643C6 27.8049 6.16875 28.0018 6.375 28.0018H23.625C23.8312 28.0018 24 27.8049 24 27.5643V24.9393C24 24.6987 23.8312 24.5018 23.625 24.5018ZM23.625 14.0018H6.40313C6.19688 14.0018 6.02813 14.1987 6.02813 14.4393L6.02344 17.0643C6.02344 17.3049 6.19219 17.5018 6.39844 17.5018H23.625C23.8312 17.5018 24 17.3049 24 17.0643V14.4393C24 14.1987 23.8312 14.0018 23.625 14.0018ZM28.6172 6.40022L15.8625 0.204123C15.5883 0.07144 15.2945 0.00314331 14.9977 0.00314331C14.7009 0.00314331 14.407 0.07144 14.1328 0.204123L1.38281 6.40022C0.548438 6.81037 0 7.76193 0 8.82287V27.5643C0 27.8049 0.16875 28.0018 0.375 28.0018H4.125C4.33125 28.0018 4.5 27.8049 4.5 27.5643V14.0018C4.5 13.0393 5.18438 12.2518 6.02813 12.2518H23.9719C24.8156 12.2518 25.5 13.0393 25.5 14.0018V27.5643C25.5 27.8049 25.6688 28.0018 25.875 28.0018H29.625C29.8312 28.0018 30 27.8049 30 27.5643V8.82287C30 7.76193 29.4516 6.81037 28.6172 6.40022Z" fill="#E9E9E9"/>
</svg>
