<svg width="34" height="32" viewBox="0 0 34 32" fill="none" xmlns="http://www.w3.org/2000/svg">
<path d="M34 8L16.8725 0L0 8V10H2.125V32H6.375V14H27.625V32H31.875V10H34V8ZM8.5 12V10H12.75V12H8.5ZM14.875 12V10H19.125V12H14.875ZM21.25 12V10H25.5V12H21.25Z" fill="white"/>
<path fill-rule="evenodd" clip-rule="evenodd" d="M16.3083 16.5914C16.3084 16.4682 16.27 16.348 16.1986 16.2477C16.1272 16.1474 16.0262 16.072 15.9099 16.032C15.7935 15.992 15.6676 15.9894 15.5498 16.0247C15.4319 16.06 15.328 16.1313 15.2526 16.2286L11.1243 21.5466C11.0437 21.6503 11 21.778 11 21.9094C11 22.0408 11.0437 22.1685 11.1243 22.2722L15.2526 27.5902C15.328 27.6875 15.4319 27.7588 15.5498 27.7941C15.6676 27.8293 15.7935 27.8268 15.9099 27.7868C16.0262 27.7468 16.1272 27.6714 16.1986 27.5711C16.27 27.4708 16.3084 27.3506 16.3083 27.2273V24.8697C19.4806 24.9359 21.0046 25.5392 21.7701 26.1951C22.4978 26.8185 22.6311 27.5517 22.7697 28.3199L22.8057 28.5178C22.8322 28.6595 22.9094 28.7866 23.0228 28.8751C23.1362 28.9637 23.2781 29.0077 23.4216 28.9989C23.5652 28.99 23.7006 28.9289 23.8023 28.827C23.904 28.7252 23.9651 28.5896 23.974 28.4458C24.0749 26.822 23.9233 24.4691 22.7786 22.5009C21.6674 20.5905 19.6664 19.1216 16.3083 18.968V16.5914Z" fill="white"/>
</svg>
