<svg width="34" height="32" viewBox="0 0 34 32" fill="none" xmlns="http://www.w3.org/2000/svg">
<path d="M34 8L16.8725 0L0 8V10H2.125V32H6.375V14H27.625V32H31.875V10H34V8ZM8.5 12V10H12.75V12H8.5ZM14.875 12V10H19.125V12H14.875ZM21.25 12V10H25.5V12H21.25Z" fill="white"/>
<path d="M9.9697 24.3588V19.3503C9.9697 19.0352 10.983 18.4582 12.6364 18.4582C14.2897 18.4582 15.303 19.04 15.303 19.3503V20.2182C15.6243 20.1686 15.948 20.1362 16.2727 20.1213V19.3503C16.2727 18.1285 14.4448 17.4885 12.6364 17.4885C10.8279 17.4885 9 18.1334 9 19.3503V24.3588C9 25.4061 10.343 26.0219 11.8606 26.1819V25.2122C10.6776 25.057 9.9697 24.6206 9.9697 24.3588Z" fill="#FEFEFE"/>
<path d="M16.7564 20.7757C14.3661 20.7757 12.5625 21.6873 12.5625 22.8994V28.8679C12.5625 30.08 14.3661 30.9915 16.7564 30.9915C19.1467 30.9915 20.9504 30.08 20.9504 28.8679V22.8994C20.9504 21.6873 19.1467 20.7757 16.7564 20.7757ZM19.9807 24.4945C19.5686 24.9794 18.3225 25.4642 16.7564 25.4642C16.1014 25.471 15.4486 25.3862 14.817 25.2121V25.92C15.4516 26.0757 16.103 26.1522 16.7564 26.1479C17.88 26.1934 18.9946 25.9319 19.9807 25.3915V26.9042C19.5686 27.3891 18.3225 27.8739 16.7564 27.8739C16.1012 27.8791 15.4484 27.7926 14.817 27.617V28.3248C15.4516 28.4805 16.103 28.5571 16.7564 28.5527C17.88 28.5983 18.9946 28.3368 19.9807 27.7963V28.9067C19.9807 29.3673 18.6958 30.0606 16.7564 30.0606C14.817 30.0606 13.5322 29.3673 13.5322 28.9067V22.8994C13.5322 22.4388 14.817 21.7454 16.7564 21.7454C18.6958 21.7454 19.9807 22.4388 19.9807 22.8994V24.4945Z" fill="#FEFEFE"/>
<path d="M18.2119 19.3503C18.2119 19.1903 18.4786 18.9624 18.9586 18.7782V18.4242C18.9596 18.1947 18.9823 17.9658 19.0264 17.7406C17.9937 18.0315 17.2422 18.5697 17.2422 19.3503V20.1212C17.5669 20.1362 17.8906 20.1685 18.2119 20.2182V19.3503Z" fill="#FEFEFE"/>
<path d="M23.5452 21.9249V24.3491C23.5452 24.6109 22.8373 25.0473 21.6543 25.1879V26.1576C23.1719 26.0024 24.5149 25.3818 24.5149 24.3394V21.4788C24.2155 21.6747 23.8887 21.825 23.5452 21.9249Z" fill="#FEFEFE"/>
<path d="M22.5766 20.8485C23.9155 20.8485 25.0008 19.7631 25.0008 18.4242C25.0008 17.0854 23.9155 16 22.5766 16C21.2377 16 20.1523 17.0854 20.1523 18.4242C20.1523 19.7631 21.2377 20.8485 22.5766 20.8485Z" fill="#FEFEFE"/>
</svg>
