<svg width="25" height="25" viewBox="0 0 25 25" fill="none" xmlns="http://www.w3.org/2000/svg">
<path d="M20.4551 8.07422H4.45508V6.07422H20.4551V8.07422ZM18.4551 2.07422H6.45508V4.07422H18.4551V2.07422ZM22.4551 12.0742V20.0742C22.4551 20.6047 22.2444 21.1134 21.8693 21.4884C21.4942 21.8635 20.9855 22.0742 20.4551 22.0742H4.45508C3.92513 22.0726 3.41734 21.8614 3.04261 21.4867C2.66788 21.112 2.45666 20.6042 2.45508 20.0742V12.0742C2.45666 11.5443 2.66788 11.0365 3.04261 10.6618C3.41734 10.287 3.92513 10.0758 4.45508 10.0742H20.4551C20.985 10.0758 21.4928 10.287 21.8675 10.6618C22.2423 11.0365 22.4535 11.5443 22.4551 12.0742ZM14.3821 17.1162L16.7051 15.1302L13.6461 14.8742L12.4551 12.0742L11.2641 14.8742L8.20508 15.1302L10.5281 17.1162L9.82808 20.0742L12.4551 18.5022L15.0821 20.0742L14.3821 17.1162Z" fill="white"/>
</svg>
