<svg width="33" height="33" viewBox="0 0 33 33" fill="none" xmlns="http://www.w3.org/2000/svg">
<g clip-path="url(#clip0_541:2523)">
<path d="M6.93945 22.1165L8.35345 20.7025L4.76745 17.1165H12.9395V15.1165H4.76745L8.35345 11.5305L6.93945 10.1165L0.939453 16.1165L6.93945 22.1165Z" fill="white"/>
<path d="M16.9403 10.1165C16.1521 10.1153 15.3716 10.27 14.6434 10.5715C13.9153 10.873 13.2539 11.3155 12.6973 11.8735L16.9403 16.1165L12.6973 20.3595C13.395 21.0571 14.254 21.5719 15.1982 21.8582C16.1424 22.1446 17.1426 22.1937 18.1103 22.0011C19.078 21.8086 19.9833 21.3804 20.7459 20.7545C21.5086 20.1286 22.1052 19.3242 22.4828 18.4127C22.8604 17.5011 23.0073 16.5105 22.9107 15.5286C22.814 14.5467 22.4767 13.6038 21.9286 12.7834C21.3805 11.963 20.6385 11.2904 19.7684 10.8252C18.8983 10.36 17.9269 10.1166 16.9403 10.1165Z" fill="white"/>
<path d="M16.9399 2.11646C15.1015 2.11535 13.281 2.47742 11.5829 3.18187C9.88485 3.88633 8.34266 4.9193 7.04492 6.22146L8.45892 7.63546C10.1367 5.95602 12.2748 4.81192 14.6029 4.34792C16.931 3.88392 19.3445 4.12085 21.5379 5.02875C23.7313 5.93664 25.6062 7.4747 26.9253 9.44836C28.2444 11.422 28.9485 13.7426 28.9485 16.1165C28.9485 18.4903 28.2444 20.8109 26.9253 22.7846C25.6062 24.7582 23.7313 26.2963 21.5379 27.2042C19.3445 28.1121 16.931 28.349 14.6029 27.885C12.2748 27.421 10.1367 26.2769 8.45892 24.5975L7.04492 26.0115C8.67268 27.639 10.6767 28.84 12.8795 29.508C15.0823 30.1761 17.4158 30.2905 19.6734 29.8413C21.931 29.392 24.043 28.393 25.8222 26.9325C27.6014 25.4721 28.993 23.5954 29.8737 21.4687C30.7544 19.3419 31.097 17.0308 30.8711 14.7401C30.6453 12.4493 29.858 10.2497 28.5789 8.33587C27.2998 6.42208 25.5685 4.85328 23.5384 3.76843C21.5082 2.68358 19.2418 2.11617 16.9399 2.11646Z" fill="white"/>
</g>
<defs>
<clipPath id="clip0_541:2523">
<rect width="32" height="32" fill="white" transform="translate(0.939453 0.116455)"/>
</clipPath>
</defs>
</svg>
