<svg width="33" height="36" viewBox="0 0 33 36" fill="none" xmlns="http://www.w3.org/2000/svg">
<path d="M28.875 30H27.5V7.5C27.5 7.10218 27.3551 6.72064 27.0973 6.43934C26.8394 6.15804 26.4897 6 26.125 6C25.7603 6 25.4106 6.15804 25.1527 6.43934C24.8949 6.72064 24.75 7.10218 24.75 7.5V30H22V13.5C22 13.1022 21.8551 12.7206 21.5973 12.4393C21.3394 12.158 20.9897 12 20.625 12C20.2603 12 19.9106 12.158 19.6527 12.4393C19.3949 12.7206 19.25 13.1022 19.25 13.5V30H16.5V19.5C16.5 19.1022 16.3551 18.7206 16.0973 18.4393C15.8394 18.158 15.4897 18 15.125 18C14.7603 18 14.4106 18.158 14.1527 18.4393C13.8949 18.7206 13.75 19.1022 13.75 19.5V30H11V25.5C11 25.1022 10.8551 24.7206 10.5973 24.4393C10.3394 24.158 9.98967 24 9.625 24C9.26033 24 8.91059 24.158 8.65273 24.4393C8.39487 24.7206 8.25 25.1022 8.25 25.5V30H5.5V4.5C5.5 4.10218 5.35513 3.72064 5.09727 3.43934C4.83941 3.15804 4.48967 3 4.125 3C3.76033 3 3.41059 3.15804 3.15273 3.43934C2.89487 3.72064 2.75 4.10218 2.75 4.5V31.5C2.75 31.8978 2.89487 32.2794 3.15273 32.5607C3.41059 32.842 3.76033 33 4.125 33H28.875C29.2397 33 29.5894 32.842 29.8473 32.5607C30.1051 32.2794 30.25 31.8978 30.25 31.5C30.25 31.1022 30.1051 30.7206 29.8473 30.4393C29.5894 30.158 29.2397 30 28.875 30Z" fill="#E9E9E9"/>
</svg>
