<svg width="35" height="38" viewBox="0 0 35 38" fill="none" xmlns="http://www.w3.org/2000/svg">
<path d="M8.75 6.65C8.75 6.39805 8.84219 6.15641 9.00628 5.97825C9.17038 5.80009 9.39294 5.7 9.625 5.7H14.875C15.1071 5.7 15.3296 5.80009 15.4937 5.97825C15.6578 6.15641 15.75 6.39805 15.75 6.65V12.35C15.75 12.602 15.6578 12.8436 15.4937 13.0218C15.3296 13.1999 15.1071 13.3 14.875 13.3H9.625C9.39294 13.3 9.17038 13.1999 9.00628 13.0218C8.84219 12.8436 8.75 12.602 8.75 12.35V6.65ZM20.125 5.7C19.8929 5.7 19.6704 5.80009 19.5063 5.97825C19.3422 6.15641 19.25 6.39805 19.25 6.65V12.35C19.25 12.602 19.3422 12.8436 19.5063 13.0218C19.6704 13.1999 19.8929 13.3 20.125 13.3H25.375C25.6071 13.3 25.8296 13.1999 25.9937 13.0218C26.1578 12.8436 26.25 12.602 26.25 12.35V6.65C26.25 6.39805 26.1578 6.15641 25.9937 5.97825C25.8296 5.80009 25.6071 5.7 25.375 5.7H20.125ZM21 11.4V7.6H24.5V11.4H21ZM3.5 22.8C3.5 20.7844 4.2375 18.8513 5.55025 17.426C6.86301 16.0007 8.64348 15.2 10.5 15.2H24.5C26.3565 15.2 28.137 16.0007 29.4497 17.426C30.7625 18.8513 31.5 20.7844 31.5 22.8C31.5 24.8156 30.7625 26.7487 29.4497 28.174C28.137 29.5993 26.3565 30.4 24.5 30.4H10.5C8.64348 30.4 6.86301 29.5993 5.55025 28.174C4.2375 26.7487 3.5 24.8156 3.5 22.8ZM12.25 22.8C12.25 22.2961 12.0656 21.8128 11.7374 21.4565C11.4092 21.1002 10.9641 20.9 10.5 20.9C10.0359 20.9 9.59075 21.1002 9.26256 21.4565C8.93437 21.8128 8.75 22.2961 8.75 22.8C8.75 23.3039 8.93437 23.7872 9.26256 24.1435C9.59075 24.4998 10.0359 24.7 10.5 24.7C10.9641 24.7 11.4092 24.4998 11.7374 24.1435C12.0656 23.7872 12.25 23.3039 12.25 22.8ZM19.25 22.8C19.25 22.2961 19.0656 21.8128 18.7374 21.4565C18.4092 21.1002 17.9641 20.9 17.5 20.9C17.0359 20.9 16.5908 21.1002 16.2626 21.4565C15.9344 21.8128 15.75 22.2961 15.75 22.8C15.75 23.3039 15.9344 23.7872 16.2626 24.1435C16.5908 24.4998 17.0359 24.7 17.5 24.7C17.9641 24.7 18.4092 24.4998 18.7374 24.1435C19.0656 23.7872 19.25 23.3039 19.25 22.8ZM24.5 24.7C24.9641 24.7 25.4092 24.4998 25.7374 24.1435C26.0656 23.7872 26.25 23.3039 26.25 22.8C26.25 22.2961 26.0656 21.8128 25.7374 21.4565C25.4092 21.1002 24.9641 20.9 24.5 20.9C24.0359 20.9 23.5908 21.1002 23.2626 21.4565C22.9344 21.8128 22.75 22.2961 22.75 22.8C22.75 23.3039 22.9344 23.7872 23.2626 24.1435C23.5908 24.4998 24.0359 24.7 24.5 24.7V24.7Z" fill="white"/>
</svg>
