<svg width="24" height="26" viewBox="0 0 24 26" fill="none" xmlns="http://www.w3.org/2000/svg">
<path d="M2 25.3008C2 25.3008 0 25.3008 0 23.2383C0 21.1758 2 14.9883 12 14.9883C22 14.9883 24 21.1758 24 23.2383C24 25.3008 22 25.3008 22 25.3008H2ZM12 12.9258C13.5913 12.9258 15.1174 12.2739 16.2426 11.1135C17.3679 9.95312 18 8.37931 18 6.73828C18 5.09725 17.3679 3.52344 16.2426 2.36306C15.1174 1.20268 13.5913 0.550781 12 0.550781C10.4087 0.550781 8.88258 1.20268 7.75736 2.36306C6.63214 3.52344 6 5.09725 6 6.73828C6 8.37931 6.63214 9.95312 7.75736 11.1135C8.88258 12.2739 10.4087 12.9258 12 12.9258Z" fill="white"/>
</svg>
