<svg width="20" height="20" viewBox="0 0 20 20" fill="none" xmlns="http://www.w3.org/2000/svg">
<path fill-rule="evenodd" clip-rule="evenodd" d="M10.2954 0C4.99567 0 0.699219 4.28249 0.699219 9.56494C0.699219 14.8474 4.99567 19.1299 10.2954 19.1299C15.595 19.1299 19.8915 14.8474 19.8915 9.56494C19.8915 4.28249 15.595 0 10.2954 0ZM13.5293 7.57109C13.6882 7.40709 13.7761 7.18744 13.7741 6.95945C13.7721 6.73146 13.6804 6.51337 13.5186 6.35215C13.3569 6.19093 13.1381 6.09948 12.9093 6.0975C12.6806 6.09552 12.4602 6.18316 12.2957 6.34156L10.2954 8.33541L8.295 6.34156C8.21452 6.25851 8.11826 6.19226 8.01183 6.14669C7.9054 6.10112 7.79092 6.07713 7.67509 6.07613C7.55926 6.07513 7.44438 6.09713 7.33717 6.14085C7.22996 6.18457 7.13256 6.24914 7.05065 6.33078C6.96874 6.41242 6.90396 6.50951 6.8601 6.61637C6.81623 6.72323 6.79416 6.83773 6.79517 6.95319C6.79617 7.06865 6.82024 7.18275 6.86596 7.28884C6.91168 7.39492 6.97814 7.49087 7.06146 7.57109L9.06182 9.56494L7.06146 11.5588C6.97814 11.639 6.91168 11.735 6.86596 11.841C6.82024 11.9471 6.79617 12.0612 6.79517 12.1767C6.79416 12.2921 6.81623 12.4066 6.8601 12.5135C6.90396 12.6204 6.96874 12.7175 7.05065 12.7991C7.13256 12.8807 7.22996 12.9453 7.33717 12.989C7.44438 13.0328 7.55926 13.0548 7.67509 13.0538C7.79092 13.0528 7.9054 13.0288 8.01183 12.9832C8.11826 12.9376 8.21452 12.8714 8.295 12.7883L10.2954 10.7945L12.2957 12.7883C12.4602 12.9467 12.6806 13.0344 12.9093 13.0324C13.1381 13.0304 13.3569 12.939 13.5186 12.7777C13.6804 12.6165 13.7721 12.3984 13.7741 12.1704C13.7761 11.9424 13.6882 11.7228 13.5293 11.5588L11.5289 9.56494L13.5293 7.57109Z" fill="white"/>
</svg>
