<svg width="171" height="171" viewBox="0 0 171 171" fill="none" xmlns="http://www.w3.org/2000/svg">
<path d="M86.696 0.0079438C38.6127 -0.641466 -0.641497 38.6108 0.00794418 86.6918C0.649165 132.804 38.1976 170.351 84.312 170.992C132.404 171.649 171.65 132.397 170.992 84.3162C170.359 38.1957 132.81 0.649133 86.696 0.0079438ZM79.7947 79.1168L100.984 54.8667C102.132 53.5531 103.754 52.7493 105.495 52.6322C107.236 52.515 108.951 53.094 110.265 54.2419C111.579 55.3898 112.382 57.0124 112.5 58.7529C112.617 60.4934 112.038 62.2092 110.89 63.5227L89.7007 87.7728C89.1323 88.4232 88.4414 88.9553 87.6673 89.3387C86.8933 89.7221 86.0513 89.9493 85.1895 90.0073C84.3276 90.0653 83.4628 89.953 82.6444 89.6768C81.8259 89.4006 81.0699 88.9659 80.4195 88.3976C79.769 87.8292 79.2369 87.1383 78.8535 86.3643C78.4701 85.5903 78.2429 84.7484 78.1849 83.8866C78.1268 83.0248 78.2391 82.16 78.5154 81.3416C78.7916 80.5232 79.2263 79.7672 79.7947 79.1168ZM63.8217 116.458C62.5885 117.69 60.9163 118.382 59.1729 118.382C57.4294 118.382 55.7573 117.69 54.524 116.458L34.8147 96.7289C34.2042 96.1179 33.72 95.3927 33.3899 94.5946C33.0597 93.7964 32.8899 92.9411 32.8903 92.0774C32.8907 91.2137 33.0612 90.3585 33.3921 89.5607C33.723 88.7629 34.2078 88.038 34.8188 87.4276C35.4299 86.8171 36.1552 86.333 36.9533 86.0028C37.7514 85.6726 38.6068 85.5029 39.4706 85.5033C40.3343 85.5036 41.1895 85.6741 41.9874 86.005C42.7853 86.3359 43.5101 86.8207 44.1206 87.4317L63.8505 107.161C65.0791 108.398 65.7662 110.072 65.7608 111.815C65.7554 113.559 65.058 115.228 63.8217 116.458ZM136.493 63.5227L90.5064 116.133C89.9139 116.812 89.1882 117.362 88.3743 117.749C87.5605 118.135 86.6758 118.351 85.7753 118.381H85.5533C84.6891 118.382 83.8334 118.211 83.035 117.881C82.2366 117.55 81.5113 117.065 80.9004 116.454L61.1952 96.7248C59.9622 95.4908 59.27 93.8176 59.2708 92.0733C59.2715 90.3289 59.9652 88.6564 61.1993 87.4235C62.4333 86.1906 64.1066 85.4984 65.851 85.4991C67.5955 85.4999 69.2681 86.1936 70.5011 87.4276L82.75 99.6883C83.0685 100.007 83.4489 100.256 83.8678 100.422C84.2867 100.587 84.7352 100.665 85.1853 100.65C85.6354 100.635 86.0777 100.527 86.4846 100.335C86.8916 100.142 87.2545 99.867 87.551 99.528L126.6 54.8667C127.748 53.5531 129.37 52.7493 131.111 52.6322C132.851 52.515 134.567 53.094 135.881 54.2419C137.195 55.3898 137.998 57.0124 138.116 58.7529C138.233 60.4934 137.654 62.2092 136.506 63.5227H136.493Z" fill="#80C7EC"/>
</svg>
