<svg width="17" height="18" viewBox="0 0 17 18" fill="none" xmlns="http://www.w3.org/2000/svg">
<path d="M8.37495 0.616211C9.07958 0.616165 9.75752 0.885755 10.2697 1.36968C10.7819 1.8536 11.0894 2.51517 11.1293 3.21867L11.1336 3.37485H15.5899C15.7511 3.3749 15.9064 3.43617 16.0243 3.54629C16.1421 3.6564 16.2138 3.80715 16.2248 3.96807C16.2358 4.12899 16.1853 4.28808 16.0835 4.4132C15.9817 4.53832 15.8362 4.62014 15.6764 4.64213L15.5899 4.64807H14.9142L13.8277 15.6996C13.7733 16.2506 13.5248 16.7642 13.1266 17.1489C12.7284 17.5336 12.2064 17.7642 11.6539 17.7996L11.5045 17.8047H5.24538C4.6915 17.8046 4.15567 17.6077 3.73365 17.2489C3.31163 16.8902 3.03093 16.3931 2.9417 15.8464L2.92218 15.6988L1.83485 4.64807H1.16005C1.00621 4.64806 0.857579 4.59235 0.741641 4.49124C0.625703 4.39012 0.550301 4.25045 0.529379 4.09804L0.523438 4.01146C0.523444 3.85762 0.579156 3.70899 0.68027 3.59305C0.781384 3.47712 0.92106 3.40171 1.07347 3.38079L1.16005 3.37485H5.61631C5.61631 2.64321 5.90695 1.94154 6.4243 1.4242C6.94164 0.906852 7.64331 0.616211 8.37495 0.616211ZM13.635 4.64807H3.11401L4.18946 15.574C4.21327 15.8178 4.3207 16.0458 4.49352 16.2194C4.66634 16.393 4.8939 16.5014 5.13758 16.5263L5.24538 16.5314H11.5045C12.0138 16.5314 12.4459 16.1707 12.5443 15.6809L12.5613 15.574L13.6342 4.64807H13.635ZM9.86037 6.9823C10.0142 6.98231 10.1628 7.03802 10.2788 7.13913C10.3947 7.24025 10.4701 7.37992 10.491 7.53233L10.497 7.61891V13.5606C10.4969 13.7219 10.4357 13.8771 10.3255 13.995C10.2154 14.1129 10.0647 14.1845 9.90376 14.1955C9.74284 14.2065 9.58375 14.156 9.45863 14.0542C9.33351 13.9524 9.25169 13.807 9.2297 13.6472L9.22376 13.5606V7.61891C9.22376 7.45007 9.29083 7.28815 9.41022 7.16876C9.52961 7.04937 9.69153 6.9823 9.86037 6.9823ZM6.88953 6.9823C7.04336 6.98231 7.19199 7.03802 7.30793 7.13913C7.42387 7.24025 7.49927 7.37992 7.52019 7.53233L7.52614 7.61891V13.5606C7.52609 13.7219 7.46481 13.8771 7.3547 13.995C7.24458 14.1129 7.09384 14.1845 6.93292 14.1955C6.772 14.2065 6.61291 14.156 6.48779 14.0542C6.36266 13.9524 6.28085 13.807 6.25886 13.6472L6.25292 13.5606V7.61891C6.25292 7.45007 6.31999 7.28815 6.43938 7.16876C6.55876 7.04937 6.72069 6.9823 6.88953 6.9823ZM8.37495 1.88943C8.00216 1.88944 7.643 2.02963 7.36877 2.28216C7.09455 2.53469 6.9253 2.8811 6.89462 3.25262L6.88953 3.37485H9.86037C9.86037 2.98089 9.70387 2.60307 9.4253 2.3245C9.14673 2.04593 8.76891 1.88943 8.37495 1.88943Z" fill="white"/>
</svg>
