<svg width="16" height="19" viewBox="0 0 16 19" fill="none" xmlns="http://www.w3.org/2000/svg">
<path d="M7.99995 0.990234C8.70458 0.990188 9.38252 1.25978 9.89469 1.7437C10.4069 2.22762 10.7144 2.88919 10.7543 3.59269L10.7586 3.74887H15.2149C15.3761 3.74892 15.5314 3.8102 15.6493 3.92031C15.7671 4.03042 15.8388 4.18117 15.8498 4.34209C15.8608 4.50301 15.8103 4.6621 15.7085 4.78722C15.6067 4.91234 15.4612 4.99416 15.3014 5.01615L15.2149 5.02209H14.5392L13.4527 16.0736C13.3983 16.6246 13.1498 17.1383 12.7516 17.5229C12.3534 17.9076 11.8314 18.1382 11.2789 18.1736L11.1295 18.1787H4.87038C4.3165 18.1787 3.78067 17.9817 3.35865 17.623C2.93663 17.2642 2.65593 16.7671 2.5667 16.2205L2.54718 16.0728L1.45985 5.02209H0.785046C0.63121 5.02208 0.482579 4.96637 0.366641 4.86526C0.250703 4.76414 0.175301 4.62447 0.154379 4.47206L0.148438 4.38548C0.148444 4.23165 0.204156 4.08302 0.30527 3.96708C0.406384 3.85114 0.54606 3.77574 0.698468 3.75481L0.785046 3.74887H5.24131C5.24131 3.01724 5.53195 2.31557 6.0493 1.79822C6.56664 1.28088 7.26831 0.990234 7.99995 0.990234ZM13.26 5.02209H2.73901L3.81446 15.948C3.83827 16.1918 3.9457 16.4198 4.11852 16.5934C4.29134 16.767 4.5189 16.8755 4.76258 16.9004L4.87038 16.9055H11.1295C11.6388 16.9055 12.0709 16.5447 12.1693 16.0549L12.1863 15.948L13.2592 5.02209H13.26ZM9.48537 7.35632C9.63921 7.35633 9.78784 7.41204 9.90377 7.51316C10.0197 7.61427 10.0951 7.75395 10.116 7.90635L10.122 7.99293V13.9346C10.1219 14.0959 10.0607 14.2512 9.95054 14.369C9.84043 14.4869 9.68968 14.5586 9.52876 14.5696C9.36784 14.5805 9.20875 14.53 9.08363 14.4283C8.95851 14.3265 8.87669 14.181 8.8547 14.0212L8.84876 13.9346V7.99293C8.84876 7.82409 8.91583 7.66217 9.03522 7.54278C9.15461 7.4234 9.31653 7.35632 9.48537 7.35632ZM6.51453 7.35632C6.66836 7.35633 6.81699 7.41204 6.93293 7.51316C7.04887 7.61427 7.12427 7.75395 7.14519 7.90635L7.15114 7.99293V13.9346C7.15109 14.0959 7.08981 14.2512 6.9797 14.369C6.86958 14.4869 6.71884 14.5586 6.55792 14.5696C6.397 14.5805 6.23791 14.53 6.11279 14.4283C5.98766 14.3265 5.90585 14.181 5.88386 14.0212L5.87792 13.9346V7.99293C5.87792 7.82409 5.94499 7.66217 6.06438 7.54278C6.18376 7.4234 6.34569 7.35632 6.51453 7.35632ZM7.99995 2.26345C7.62716 2.26347 7.268 2.40365 6.99377 2.65618C6.71955 2.90871 6.5503 3.25512 6.51962 3.62664L6.51453 3.74887H9.48537C9.48537 3.35492 9.32887 2.97709 9.0503 2.69852C8.77173 2.41995 8.39391 2.26345 7.99995 2.26345Z" fill="white"/>
</svg>
