<svg width="32" height="33" viewBox="0 0 32 33" fill="none" xmlns="http://www.w3.org/2000/svg">
<path d="M2 28.875C2 28.875 0 28.875 0 26.8125C0 24.75 2 18.5625 12 18.5625C22 18.5625 24 24.75 24 26.8125C24 28.875 22 28.875 22 28.875H2ZM12 16.5C13.5913 16.5 15.1174 15.8481 16.2426 14.6877C17.3679 13.5273 18 11.9535 18 10.3125C18 8.67147 17.3679 7.09766 16.2426 5.93728C15.1174 4.7769 13.5913 4.125 12 4.125C10.4087 4.125 8.88258 4.7769 7.75736 5.93728C6.63214 7.09766 6 8.67147 6 10.3125C6 11.9535 6.63214 13.5273 7.75736 14.6877C8.88258 15.8481 10.4087 16.5 12 16.5Z" fill="#E9E9E9"/>
</svg>
