<svg width="17" height="21" viewBox="0 0 17 21" fill="none" xmlns="http://www.w3.org/2000/svg">
<path d="M16.1666 7.62491C15.3322 7.62487 14.5124 7.4067 13.7885 6.99204C13.0645 6.57738 12.4615 5.98064 12.0393 5.26102H4.18739V4.11102C4.18739 3.94158 4.2547 3.77907 4.37452 3.65926C4.49433 3.53944 4.65684 3.47213 4.82628 3.47213H7.02406V3.03769C7.02406 2.64543 7.17988 2.26923 7.45726 1.99186C7.73463 1.71449 8.11082 1.55866 8.50309 1.55866C8.89535 1.55866 9.27155 1.71449 9.54892 1.99186C9.82629 2.26923 9.98211 2.64543 9.98211 3.03769V3.47213H11.426C11.3969 3.2604 11.382 3.04696 11.3813 2.83324C11.3826 2.60871 11.3997 2.38456 11.4324 2.16241H11.1129C10.9291 1.61589 10.5783 1.14089 10.11 0.804383C9.64178 0.467881 9.07971 0.286865 8.50309 0.286865C7.92647 0.286865 7.36439 0.467881 6.89614 0.804383C6.4279 1.14089 6.0771 1.61589 5.89322 2.16241H1.47211C1.31565 2.13978 1.15617 2.15059 1.00419 2.19412C0.852215 2.23766 0.711197 2.31292 0.590445 2.41496C0.469693 2.51699 0.371952 2.64348 0.303673 2.78606C0.235393 2.92865 0.198128 3.08409 0.194336 3.24213V19.6105C0.195172 19.7531 0.224095 19.8942 0.279451 20.0256C0.334808 20.1571 0.415514 20.2763 0.516963 20.3766C0.618411 20.4769 0.738615 20.5562 0.87071 20.61C1.00281 20.6638 1.14421 20.691 1.28684 20.6902H15.7129C15.8556 20.691 15.997 20.6638 16.1291 20.61C16.2612 20.5562 16.3814 20.4769 16.4828 20.3766C16.5843 20.2763 16.665 20.1571 16.7203 20.0256C16.7757 19.8942 16.8046 19.7531 16.8054 19.6105V7.58019C16.5937 7.60929 16.3803 7.62423 16.1666 7.62491ZM13.4641 9.99519L7.63739 15.8219L4.28961 12.4741C4.12017 12.3046 4.02498 12.0748 4.02498 11.8352C4.02498 11.5956 4.12017 11.3657 4.28961 11.1963C4.45906 11.0269 4.68887 10.9317 4.9285 10.9317C5.16813 10.9317 5.39795 11.0269 5.56739 11.1963L7.65017 13.2791L12.2118 8.71741C12.2957 8.63351 12.3953 8.56696 12.505 8.52155C12.6146 8.47614 12.7321 8.45278 12.8507 8.45278C12.9694 8.45278 13.0869 8.47614 13.1965 8.52155C13.3061 8.56696 13.4057 8.63351 13.4896 8.71741C13.5735 8.80131 13.6401 8.90092 13.6855 9.01054C13.7309 9.12016 13.7542 9.23765 13.7542 9.3563C13.7542 9.47495 13.7309 9.59244 13.6855 9.70206C13.6401 9.81168 13.5735 9.91129 13.4896 9.99519H13.4641Z" fill="white"/>
</svg>
