<svg width="47" height="51" viewBox="0 0 47 51" fill="none" xmlns="http://www.w3.org/2000/svg">
<path d="M23.25 0.75C25.3084 0.74971 27.2926 1.51891 28.8129 2.90658C30.3332 4.29425 31.2799 6.20012 31.467 8.25H44.25C44.8201 8.25017 45.3688 8.46673 45.7854 8.85592C46.2019 9.2451 46.4552 9.7779 46.4941 10.3466C46.5329 10.9154 46.3545 11.4777 45.9947 11.9199C45.635 12.3621 45.1207 12.6513 44.556 12.729L44.25 12.75H42.501L38.7 45.69C38.5307 47.1522 37.8299 48.5011 36.7307 49.4802C35.6316 50.4593 34.211 51.0002 32.739 51H13.761C12.289 51.0002 10.8684 50.4593 9.76925 49.4802C8.67014 48.5011 7.96927 47.1522 7.8 45.69L3.996 12.75H2.25C1.70629 12.75 1.18097 12.5531 0.771208 12.1957C0.361442 11.8383 0.0949448 11.3447 0.0209999 10.806L0 10.5C2.29287e-05 9.95629 0.196928 9.43097 0.554301 9.02121C0.911674 8.61144 1.40534 8.34494 1.944 8.271L2.25 8.25H15.033C15.2201 6.20012 16.1668 4.29425 17.6871 2.90658C19.2074 1.51891 21.1916 0.74971 23.25 0.75ZM18.75 19.5C18.015 19.5 17.4 19.965 17.274 20.577L17.25 20.814V39.189L17.274 39.423C17.4 40.035 18.015 40.5 18.75 40.5C19.485 40.5 20.1 40.035 20.226 39.423L20.25 39.186V20.817L20.226 20.577C20.1 19.968 19.485 19.5 18.75 19.5ZM27.75 19.5C27.015 19.5 26.4 19.965 26.274 20.577L26.25 20.814V39.189L26.274 39.423C26.4 40.035 27.015 40.5 27.75 40.5C28.485 40.5 29.1 40.035 29.226 39.423L29.25 39.186V20.817L29.226 20.577C29.1 19.968 28.485 19.503 27.75 19.503V19.5ZM23.25 5.25C21.435 5.25 19.92 6.54 19.575 8.25H26.925C26.577 6.54 25.065 5.25 23.25 5.25Z" fill="#FE8950"/>
</svg>
