<svg width="19" height="22" viewBox="0 0 19 22" fill="none" xmlns="http://www.w3.org/2000/svg">
<path d="M8.84 12.2875C8.89375 12.3063 8.9475 12.325 9 12.3463V10.5H8.375C8.24115 10.5001 8.11086 10.5431 8.00329 10.6227C7.89573 10.7024 7.81658 10.8145 7.7775 10.9425C8.2625 11.2625 8.64 11.7337 8.84 12.2887V12.2875ZM15.25 14.25H10.655L11.2362 15.4125C11.4097 15.7595 11.5 16.1421 11.5 16.53V16.75H14.625C14.7908 16.75 14.9497 16.6842 15.0669 16.5669C15.1842 16.4497 15.25 16.2908 15.25 16.125V14.25ZM6.29125 10.5C6.39625 10.5 6.49875 10.5063 6.60125 10.5175C6.7279 10.1477 6.96695 9.82673 7.28498 9.59947C7.60301 9.37221 7.98412 9.25002 8.375 9.25H14.625C15.1223 9.25 15.5992 9.44754 15.9508 9.79917C16.3025 10.1508 16.5 10.6277 16.5 11.125V16.125C16.5 16.6223 16.3025 17.0992 15.9508 17.4508C15.5992 17.8025 15.1223 18 14.625 18H11.5V19.25C11.5 19.705 11.3788 20.1325 11.165 20.5H17.125C17.6223 20.5 18.0992 20.3025 18.4508 19.9508C18.8025 19.5992 19 19.1223 19 18.625V8H13.375C12.8777 8 12.4008 7.80246 12.0492 7.45083C11.6975 7.09919 11.5 6.62228 11.5 6.125V0.5H5.875C5.37772 0.5 4.90081 0.697544 4.54917 1.04917C4.19754 1.40081 4 1.87772 4 2.375V10.5H6.29125ZM15.25 11.125V13H10.25V10.5H14.625C14.7908 10.5 14.9497 10.5658 15.0669 10.6831C15.1842 10.8003 15.25 10.9592 15.25 11.125ZM12.75 6.125V0.8125L18.6875 6.75H13.375C13.2092 6.75 13.0503 6.68415 12.9331 6.56694C12.8158 6.44973 12.75 6.29076 12.75 6.125ZM1.70875 11.75C0.9025 11.75 0.25 12.4025 0.25 13.2087V19.0413C0.25 19.6338 0.6025 20.1412 1.1075 20.3713C1.17365 20.7461 1.36609 21.0871 1.65283 21.3375C1.93958 21.5879 2.30336 21.7326 2.68375 21.7477C3.06413 21.7627 3.43821 21.6471 3.74383 21.4202C4.04945 21.1932 4.2682 20.8685 4.36375 20.5H5.3025C5.39504 20.8578 5.60381 21.1747 5.89602 21.4009C6.18823 21.6272 6.54732 21.7499 6.91687 21.7499C7.28643 21.7499 7.64552 21.6272 7.93773 21.4009C8.22994 21.1747 8.43871 20.8578 8.53125 20.5H9C9.33152 20.5 9.64946 20.3683 9.88388 20.1339C10.1183 19.8995 10.25 19.5815 10.25 19.25V16.53C10.2498 16.336 10.2044 16.1447 10.1175 15.9712L9.18625 14.1088C9.08269 13.9009 8.92327 13.726 8.72589 13.6037C8.52851 13.4814 8.30096 13.4165 8.06875 13.4163H7.75V13.2087C7.75 12.4025 7.0975 11.75 6.29125 11.75H1.70875ZM7.75 15.9163V14.25H8.06875C8.22625 14.25 8.37 14.3387 8.44125 14.48L9.15875 15.9175H7.75V15.9163ZM1.91625 20.0837C1.91625 19.8626 2.00409 19.6506 2.16045 19.4942C2.31681 19.3378 2.52888 19.25 2.75 19.25C2.97112 19.25 3.18319 19.3378 3.33955 19.4942C3.49591 19.6506 3.58375 19.8626 3.58375 20.0837C3.58375 20.3049 3.49591 20.5169 3.33955 20.6733C3.18319 20.8297 2.97112 20.9175 2.75 20.9175C2.52888 20.9175 2.31681 20.8297 2.16045 20.6733C2.00409 20.5169 1.91625 20.3049 1.91625 20.0837ZM6.91625 20.9163C6.80413 20.9206 6.69228 20.9023 6.58741 20.8623C6.48254 20.8224 6.38681 20.7618 6.30595 20.684C6.22508 20.6062 6.16075 20.5129 6.11681 20.4096C6.07287 20.3064 6.05022 20.1953 6.05022 20.0831C6.05022 19.9709 6.07287 19.8599 6.11681 19.7566C6.16075 19.6534 6.22508 19.5601 6.30595 19.4823C6.38681 19.4045 6.48254 19.3438 6.58741 19.3039C6.69228 19.264 6.80413 19.2457 6.91625 19.25C7.13162 19.2583 7.3354 19.3498 7.48483 19.5051C7.63425 19.6604 7.71772 19.8676 7.71772 20.0831C7.71772 20.2987 7.63425 20.5058 7.48483 20.6612C7.3354 20.8165 7.13162 20.9079 6.91625 20.9163Z" fill="white"/>
</svg>
