<svg width="29" height="31" viewBox="0 0 29 31" fill="none" xmlns="http://www.w3.org/2000/svg">
<path d="M27.0859 27.1797H25.7109V4.67969C25.7109 4.28186 25.5661 3.90033 25.3082 3.61903C25.0503 3.33772 24.7006 3.17969 24.3359 3.17969C23.9713 3.17969 23.6215 3.33772 23.3637 3.61903C23.1058 3.90033 22.9609 4.28186 22.9609 4.67969V27.1797H20.2109V10.6797C20.2109 10.2819 20.0661 9.90033 19.8082 9.61903C19.5503 9.33772 19.2006 9.17969 18.8359 9.17969C18.4713 9.17969 18.1215 9.33772 17.8637 9.61903C17.6058 9.90033 17.4609 10.2819 17.4609 10.6797V27.1797H14.7109V16.6797C14.7109 16.2819 14.5661 15.9003 14.3082 15.619C14.0503 15.3377 13.7006 15.1797 13.3359 15.1797C12.9713 15.1797 12.6215 15.3377 12.3637 15.619C12.1058 15.9003 11.9609 16.2819 11.9609 16.6797V27.1797H9.21094V22.6797C9.21094 22.2819 9.06607 21.9003 8.80821 21.619C8.55035 21.3377 8.20061 21.1797 7.83594 21.1797C7.47126 21.1797 7.12153 21.3377 6.86367 21.619C6.6058 21.9003 6.46094 22.2819 6.46094 22.6797V27.1797H3.71094V1.67969C3.71094 1.28186 3.56607 0.900332 3.30821 0.619027C3.05035 0.337723 2.70061 0.179688 2.33594 0.179688C1.97126 0.179688 1.62153 0.337723 1.36367 0.619027C1.1058 0.900332 0.960938 1.28186 0.960938 1.67969V28.6797C0.960938 29.0775 1.1058 29.459 1.36367 29.7403C1.62153 30.0217 1.97126 30.1797 2.33594 30.1797H27.0859C27.4506 30.1797 27.8003 30.0217 28.0582 29.7403C28.3161 29.459 28.4609 29.0775 28.4609 28.6797C28.4609 28.2819 28.3161 27.9003 28.0582 27.619C27.8003 27.3377 27.4506 27.1797 27.0859 27.1797Z" fill="white"/>
</svg>
