<svg width="17" height="17" viewBox="0 0 17 17" fill="none" xmlns="http://www.w3.org/2000/svg">
<path d="M0.5625 0.125C0.413316 0.125 0.270242 0.184263 0.164752 0.289752C0.0592632 0.395242 0 0.538316 0 0.6875C0 0.836684 0.0592632 0.979758 0.164752 1.08525C0.270242 1.19074 0.413316 1.25 0.5625 1.25H1.81125L2.26237 3.05788L3.94763 12.041C3.97175 12.1699 4.04016 12.2863 4.14102 12.3701C4.24189 12.4539 4.36886 12.4999 4.5 12.5H5.625C5.02826 12.5 4.45597 12.7371 4.03401 13.159C3.61205 13.581 3.375 14.1533 3.375 14.75C3.375 15.3467 3.61205 15.919 4.03401 16.341C4.45597 16.7629 5.02826 17 5.625 17C6.22174 17 6.79403 16.7629 7.21599 16.341C7.63795 15.919 7.875 15.3467 7.875 14.75C7.875 14.1533 7.63795 13.581 7.21599 13.159C6.79403 12.7371 6.22174 12.5 5.625 12.5H13.5C12.9033 12.5 12.331 12.7371 11.909 13.159C11.4871 13.581 11.25 14.1533 11.25 14.75C11.25 15.3467 11.4871 15.919 11.909 16.341C12.331 16.7629 12.9033 17 13.5 17C14.0967 17 14.669 16.7629 15.091 16.341C15.5129 15.919 15.75 15.3467 15.75 14.75C15.75 14.1533 15.5129 13.581 15.091 13.159C14.669 12.7371 14.0967 12.5 13.5 12.5H14.625C14.7561 12.4999 14.8831 12.4539 14.984 12.3701C15.0848 12.2863 15.1532 12.1699 15.1774 12.041L16.8649 3.041C16.8801 2.95982 16.8772 2.87628 16.8565 2.79633C16.8357 2.71638 16.7977 2.64198 16.7449 2.5784C16.6922 2.51483 16.6261 2.46365 16.5514 2.42849C16.4767 2.39334 16.3951 2.37508 16.3125 2.375H3.25125L2.79562 0.551375C2.76526 0.429632 2.69506 0.321536 2.5962 0.244278C2.49733 0.16702 2.37547 0.125035 2.25 0.125H0.5625ZM6.75 14.75C6.75 15.0484 6.63147 15.3345 6.4205 15.5455C6.20952 15.7565 5.92337 15.875 5.625 15.875C5.32663 15.875 5.04048 15.7565 4.8295 15.5455C4.61853 15.3345 4.5 15.0484 4.5 14.75C4.5 14.4516 4.61853 14.1655 4.8295 13.9545C5.04048 13.7435 5.32663 13.625 5.625 13.625C5.92337 13.625 6.20952 13.7435 6.4205 13.9545C6.63147 14.1655 6.75 14.4516 6.75 14.75ZM14.625 14.75C14.625 15.0484 14.5065 15.3345 14.2955 15.5455C14.0845 15.7565 13.7984 15.875 13.5 15.875C13.2016 15.875 12.9155 15.7565 12.7045 15.5455C12.4935 15.3345 12.375 15.0484 12.375 14.75C12.375 14.4516 12.4935 14.1655 12.7045 13.9545C12.9155 13.7435 13.2016 13.625 13.5 13.625C13.7984 13.625 14.0845 13.7435 14.2955 13.9545C14.5065 14.1655 14.625 14.4516 14.625 14.75ZM12.7733 6.14825L9.39825 9.52325C9.346 9.57563 9.28393 9.61719 9.21559 9.64555C9.14725 9.67391 9.07399 9.68851 9 9.68851C8.92601 9.68851 8.85275 9.67391 8.78441 9.64555C8.71607 9.61719 8.654 9.57563 8.60175 9.52325L6.91425 7.83575C6.86195 7.78345 6.82047 7.72136 6.79216 7.65303C6.76386 7.5847 6.74929 7.51146 6.74929 7.4375C6.74929 7.36354 6.76386 7.2903 6.79216 7.22197C6.82047 7.15364 6.86195 7.09155 6.91425 7.03925C6.96655 6.98695 7.02864 6.94547 7.09697 6.91716C7.1653 6.88886 7.23854 6.87429 7.3125 6.87429C7.38646 6.87429 7.4597 6.88886 7.52803 6.91716C7.59636 6.94547 7.65845 6.98695 7.71075 7.03925L9 8.32963L11.9767 5.35175C12.029 5.29945 12.0911 5.25797 12.1595 5.22966C12.2278 5.20136 12.301 5.18679 12.375 5.18679C12.449 5.18679 12.5222 5.20136 12.5905 5.22966C12.6589 5.25797 12.721 5.29945 12.7733 5.35175C12.8255 5.40405 12.867 5.46614 12.8953 5.53447C12.9236 5.6028 12.9382 5.67604 12.9382 5.75C12.9382 5.82396 12.9236 5.8972 12.8953 5.96553C12.867 6.03386 12.8255 6.09595 12.7733 6.14825Z" fill="white"/>
</svg>
