<svg width="29" height="29" viewBox="0 0 29 29" fill="none" xmlns="http://www.w3.org/2000/svg">
<path d="M28.2404 8.93116C28.2382 8.83189 28.2248 8.73318 28.2005 8.63691C28.1909 8.60253 28.1716 8.56953 28.1593 8.53516C28.1304 8.45678 28.1042 8.37978 28.063 8.30828C28.041 8.27116 28.0107 8.24091 27.9846 8.20516C27.9406 8.14328 27.898 8.08003 27.8444 8.02641C27.8127 7.99616 27.7715 7.97141 27.7371 7.94253C27.6835 7.89853 27.634 7.85041 27.5721 7.81328C27.5666 7.80916 27.5597 7.80916 27.5529 7.80503L27.5419 7.79678L15.1957 0.935533C14.9917 0.822407 14.7623 0.762937 14.5291 0.762696C14.2958 0.762456 14.0662 0.821453 13.862 0.934158L1.45813 7.79541C1.454 7.79953 1.44987 7.80503 1.443 7.80916L1.42925 7.81466C1.38112 7.84216 1.34538 7.88203 1.3 7.91503C1.2505 7.95216 1.19825 7.98516 1.15425 8.02778C1.113 8.07041 1.08137 8.11991 1.04562 8.16803C1.0085 8.21616 0.96725 8.25878 0.937 8.31103C0.90125 8.37016 0.882 8.43753 0.855875 8.50216C0.836625 8.54753 0.811875 8.59016 0.7995 8.63966C0.775753 8.73417 0.762382 8.831 0.759625 8.92841C0.75825 8.95178 0.75 8.97241 0.75 8.99716V19.9999C0.75 20.499 1.02088 20.9597 1.45813 21.2017L13.8029 28.0588L13.8043 28.0602L13.807 28.0615L13.8345 28.0767C13.8936 28.1097 13.9583 28.1275 14.0201 28.1509C14.0641 28.1688 14.1068 28.1922 14.1535 28.2045C14.3817 28.2634 14.6211 28.2634 14.8492 28.2045C14.8946 28.1922 14.9373 28.1688 14.9826 28.1509C15.0445 28.1275 15.1091 28.111 15.1683 28.0767L15.1957 28.0615L15.1985 28.0602L15.1999 28.0588L27.5446 21.2017C27.9791 20.9597 28.25 20.499 28.25 19.9999V8.99716C28.25 8.97378 28.2418 8.95453 28.2404 8.93116ZM14.4615 14.3239L4.95475 9.00678L8.7525 6.90578L18.1493 12.2752L14.4615 14.3239ZM14.5275 3.71028L24.0439 8.99991L20.9584 10.7145L11.5671 5.34791L14.5275 3.71028ZM15.875 24.5388L15.8777 16.7302L20 14.4229V18.6249L22.75 17.2499V12.8843L25.5 11.3457V19.19L15.875 24.5388Z" fill="white"/>
</svg>
