<svg width="17" height="23" viewBox="0 0 17 23" fill="none" xmlns="http://www.w3.org/2000/svg">
<path d="M13.5677 7.10714C13.6316 7.17094 13.6824 7.24673 13.717 7.33018C13.7516 7.41362 13.7695 7.50308 13.7695 7.59342C13.7695 7.68377 13.7516 7.77323 13.717 7.85667C13.6824 7.94012 13.6316 8.01591 13.5677 8.07971L11.1637 10.4837C11.0386 10.6087 10.87 10.6806 10.6932 10.6844C10.5164 10.6882 10.3449 10.6237 10.2145 10.5043L9.1842 9.56331C9.0566 9.43884 8.98238 9.26964 8.97724 9.09145C8.9721 8.91327 9.03643 8.74007 9.15663 8.60845C9.27684 8.47682 9.44351 8.39709 9.62143 8.38609C9.79935 8.3751 9.97457 8.4337 10.1101 8.54952L10.6554 9.0468L12.5951 7.10714C12.6589 7.04317 12.7347 6.99242 12.8181 6.9578C12.9016 6.92317 12.991 6.90535 13.0814 6.90535C13.1717 6.90535 13.2612 6.92317 13.3446 6.9578C13.4281 6.99242 13.5039 7.04317 13.5677 7.10714ZM13.5677 14.9482C13.6966 14.8194 13.7692 14.6447 13.7693 14.4624C13.7694 14.2801 13.6971 14.1053 13.5684 13.9763C13.4396 13.8473 13.2648 13.7748 13.0826 13.7747C12.9003 13.7746 12.7254 13.8468 12.5965 13.9756L10.6554 15.9153L10.1101 15.418C9.97457 15.3022 9.79935 15.2436 9.62143 15.2546C9.44351 15.2656 9.27684 15.3453 9.15663 15.4769C9.03643 15.6086 8.9721 15.7818 8.97724 15.9599C8.98238 16.1381 9.0566 16.3073 9.1842 16.4318L10.2145 17.3728C10.3448 17.4918 10.516 17.5561 10.6925 17.5522C10.869 17.5484 11.0373 17.4768 11.1623 17.3522L13.5663 14.9482H13.5677ZM3.46549 8.28027C3.28333 8.28027 3.10863 8.35264 2.97982 8.48145C2.85101 8.61026 2.77865 8.78496 2.77865 8.96712C2.77865 9.14929 2.85101 9.32399 2.97982 9.4528C3.10863 9.58161 3.28333 9.65397 3.46549 9.65397H6.89974C7.0819 9.65397 7.25661 9.58161 7.38542 9.4528C7.51422 9.32399 7.58659 9.14929 7.58659 8.96712C7.58659 8.78496 7.51422 8.61026 7.38542 8.48145C7.25661 8.35264 7.0819 8.28027 6.89974 8.28027H3.46549ZM2.77865 15.8356C2.77865 15.6534 2.85101 15.4787 2.97982 15.3499C3.10863 15.2211 3.28333 15.1488 3.46549 15.1488H6.89974C7.0819 15.1488 7.25661 15.2211 7.38542 15.3499C7.51422 15.4787 7.58659 15.6534 7.58659 15.8356C7.58659 16.0178 7.51422 16.1925 7.38542 16.3213C7.25661 16.4501 7.0819 16.5225 6.89974 16.5225H3.46549C3.28333 16.5225 3.10863 16.4501 2.97982 16.3213C2.85101 16.1925 2.77865 16.0178 2.77865 15.8356ZM4.26911 1.41178C4.41121 1.00987 4.67446 0.661921 5.02259 0.415892C5.37073 0.169862 5.7866 0.0378627 6.21289 0.0380862H10.334C10.7603 0.0378627 11.1761 0.169862 11.5243 0.415892C11.8724 0.661921 12.1357 1.00987 12.2778 1.41178H14.4551C15.0016 1.41178 15.5257 1.62888 15.9121 2.0153C16.2985 2.40173 16.5156 2.92584 16.5156 3.47233V19.9567C16.5156 20.5032 16.2985 21.0273 15.9121 21.4137C15.5257 21.8002 15.0016 22.0173 14.4551 22.0173H2.0918C1.54531 22.0173 1.0212 21.8002 0.63477 21.4137C0.248342 21.0273 0.03125 20.5032 0.03125 19.9567V3.47233C0.03125 2.92584 0.248342 2.40173 0.63477 2.0153C1.0212 1.62888 1.54531 1.41178 2.0918 1.41178H4.26911ZM6.21289 1.41178C6.03073 1.41178 5.85602 1.48415 5.72721 1.61296C5.59841 1.74177 5.52604 1.91647 5.52604 2.09863C5.52604 2.2808 5.59841 2.4555 5.72721 2.58431C5.85602 2.71312 6.03073 2.78548 6.21289 2.78548H10.334C10.5161 2.78548 10.6909 2.71312 10.8197 2.58431C10.9485 2.4555 11.0208 2.2808 11.0208 2.09863C11.0208 1.91647 10.9485 1.74177 10.8197 1.61296C10.6909 1.48415 10.5161 1.41178 10.334 1.41178H6.21289ZM4.26911 2.78548H2.0918C1.90963 2.78548 1.73493 2.85785 1.60612 2.98666C1.47731 3.11546 1.40495 3.29017 1.40495 3.47233V19.9567C1.40495 20.1389 1.47731 20.3136 1.60612 20.4424C1.73493 20.5712 1.90963 20.6436 2.0918 20.6436H14.4551C14.6372 20.6436 14.8119 20.5712 14.9408 20.4424C15.0696 20.3136 15.1419 20.1389 15.1419 19.9567V3.47233C15.1419 3.29017 15.0696 3.11546 14.9408 2.98666C14.8119 2.85785 14.6372 2.78548 14.4551 2.78548H12.2778C12.1357 3.1874 11.8724 3.53534 11.5243 3.78137C11.1761 4.0274 10.7603 4.1594 10.334 4.15918H6.21289C5.7866 4.1594 5.37073 4.0274 5.02259 3.78137C4.67446 3.53534 4.41121 3.1874 4.26911 2.78548Z" fill="white"/>
</svg>
