<svg width="17" height="23" viewBox="0 0 17 23" fill="none" xmlns="http://www.w3.org/2000/svg">
<path d="M13.5364 7.10714C13.6004 7.17094 13.6511 7.24673 13.6858 7.33018C13.7204 7.41362 13.7382 7.50308 13.7382 7.59342C13.7382 7.68377 13.7204 7.77323 13.6858 7.85667C13.6511 7.94012 13.6004 8.01591 13.5364 8.07971L11.1324 10.4837C11.0073 10.6087 10.8388 10.6806 10.662 10.6844C10.4851 10.6882 10.3137 10.6237 10.1832 10.5043L9.15295 9.56331C9.02535 9.43884 8.95113 9.26964 8.94599 9.09145C8.94085 8.91327 9.00518 8.74007 9.12538 8.60845C9.24559 8.47682 9.41226 8.39709 9.59018 8.38609C9.7681 8.3751 9.94332 8.4337 10.0788 8.54952L10.6242 9.0468L12.5638 7.10714C12.6276 7.04317 12.7034 6.99242 12.7869 6.9578C12.8703 6.92317 12.9598 6.90535 13.0501 6.90535C13.1405 6.90535 13.2299 6.92317 13.3134 6.9578C13.3968 6.99242 13.4726 7.04317 13.5364 7.10714ZM13.5364 14.9482C13.6654 14.8194 13.7379 14.6447 13.738 14.4624C13.7382 14.2801 13.6659 14.1053 13.5371 13.9763C13.4083 13.8473 13.2336 13.7748 13.0513 13.7747C12.869 13.7746 12.6942 13.8468 12.5652 13.9756L10.6242 15.9153L10.0788 15.418C9.94332 15.3022 9.7681 15.2436 9.59018 15.2546C9.41226 15.2656 9.24559 15.3453 9.12538 15.4769C9.00518 15.6086 8.94085 15.7818 8.94599 15.9599C8.95113 16.1381 9.02535 16.3073 9.15295 16.4318L10.1832 17.3728C10.3136 17.4918 10.4848 17.5561 10.6613 17.5522C10.8378 17.5484 11.006 17.4768 11.1311 17.3522L13.535 14.9482H13.5364ZM3.43424 8.28027C3.25208 8.28027 3.07738 8.35264 2.94857 8.48145C2.81976 8.61026 2.7474 8.78496 2.7474 8.96712C2.7474 9.14929 2.81976 9.32399 2.94857 9.4528C3.07738 9.58161 3.25208 9.65397 3.43424 9.65397H6.86849C7.05065 9.65397 7.22536 9.58161 7.35417 9.4528C7.48297 9.32399 7.55534 9.14929 7.55534 8.96712C7.55534 8.78496 7.48297 8.61026 7.35417 8.48145C7.22536 8.35264 7.05065 8.28027 6.86849 8.28027H3.43424ZM2.7474 15.8356C2.7474 15.6534 2.81976 15.4787 2.94857 15.3499C3.07738 15.2211 3.25208 15.1488 3.43424 15.1488H6.86849C7.05065 15.1488 7.22536 15.2211 7.35417 15.3499C7.48297 15.4787 7.55534 15.6534 7.55534 15.8356C7.55534 16.0178 7.48297 16.1925 7.35417 16.3213C7.22536 16.4501 7.05065 16.5225 6.86849 16.5225H3.43424C3.25208 16.5225 3.07738 16.4501 2.94857 16.3213C2.81976 16.1925 2.7474 16.0178 2.7474 15.8356ZM4.23786 1.41178C4.37996 1.00987 4.64321 0.661921 4.99134 0.415892C5.33948 0.169862 5.75535 0.0378627 6.18164 0.0380862H10.3027C10.729 0.0378627 11.1449 0.169862 11.493 0.415892C11.8412 0.661921 12.1044 1.00987 12.2465 1.41178H14.4238C14.9703 1.41178 15.4944 1.62888 15.8809 2.0153C16.2673 2.40173 16.4844 2.92584 16.4844 3.47233V19.9567C16.4844 20.5032 16.2673 21.0273 15.8809 21.4137C15.4944 21.8002 14.9703 22.0173 14.4238 22.0173H2.06055C1.51406 22.0173 0.989947 21.8002 0.60352 21.4137C0.217092 21.0273 0 20.5032 0 19.9567V3.47233C0 2.92584 0.217092 2.40173 0.60352 2.0153C0.989947 1.62888 1.51406 1.41178 2.06055 1.41178H4.23786ZM6.18164 1.41178C5.99948 1.41178 5.82477 1.48415 5.69596 1.61296C5.56716 1.74177 5.49479 1.91647 5.49479 2.09863C5.49479 2.2808 5.56716 2.4555 5.69596 2.58431C5.82477 2.71312 5.99948 2.78548 6.18164 2.78548H10.3027C10.4849 2.78548 10.6596 2.71312 10.7884 2.58431C10.9172 2.4555 10.9896 2.2808 10.9896 2.09863C10.9896 1.91647 10.9172 1.74177 10.7884 1.61296C10.6596 1.48415 10.4849 1.41178 10.3027 1.41178H6.18164ZM4.23786 2.78548H2.06055C1.87838 2.78548 1.70368 2.85785 1.57487 2.98666C1.44606 3.11546 1.3737 3.29017 1.3737 3.47233V19.9567C1.3737 20.1389 1.44606 20.3136 1.57487 20.4424C1.70368 20.5712 1.87838 20.6436 2.06055 20.6436H14.4238C14.606 20.6436 14.7807 20.5712 14.9095 20.4424C15.0383 20.3136 15.1107 20.1389 15.1107 19.9567V3.47233C15.1107 3.29017 15.0383 3.11546 14.9095 2.98666C14.7807 2.85785 14.606 2.78548 14.4238 2.78548H12.2465C12.1044 3.1874 11.8412 3.53534 11.493 3.78137C11.1449 4.0274 10.729 4.1594 10.3027 4.15918H6.18164C5.75535 4.1594 5.33948 4.0274 4.99134 3.78137C4.64321 3.53534 4.37996 3.1874 4.23786 2.78548Z" fill="white"/>
</svg>
