<svg width="23" height="29" viewBox="0 0 23 29" fill="none" xmlns="http://www.w3.org/2000/svg">
<path d="M5.71484 10.9971C5.31702 10.9971 4.93549 11.1551 4.65418 11.4364C4.37288 11.7177 4.21484 12.0992 4.21484 12.4971V21.4971C4.21484 21.8949 4.37288 22.2764 4.65418 22.5577C4.93549 22.839 5.31702 22.9971 5.71484 22.9971C6.11267 22.9971 6.4942 22.839 6.7755 22.5577C7.05681 22.2764 7.21484 21.8949 7.21484 21.4971V12.4971C7.21484 12.0992 7.05681 11.7177 6.7755 11.4364C6.4942 11.1551 6.11267 10.9971 5.71484 10.9971ZM9.71484 14.4971C9.71484 14.0992 9.87288 13.7177 10.1542 13.4364C10.4355 13.1551 10.817 12.9971 11.2148 12.9971C11.6127 12.9971 11.9942 13.1551 12.2755 13.4364C12.5568 13.7177 12.7148 14.0992 12.7148 14.4971V21.4971C12.7148 21.8949 12.5568 22.2764 12.2755 22.5577C11.9942 22.839 11.6127 22.9971 11.2148 22.9971C10.817 22.9971 10.4355 22.839 10.1542 22.5577C9.87288 22.2764 9.71484 21.8949 9.71484 21.4971V14.4971ZM16.7148 16.9971C16.317 16.9971 15.9355 17.1551 15.6542 17.4364C15.3729 17.7177 15.2148 18.0992 15.2148 18.4971V21.4971C15.2148 21.8949 15.3729 22.2764 15.6542 22.5577C15.9355 22.839 16.317 22.9971 16.7148 22.9971C17.1127 22.9971 17.4942 22.839 17.7755 22.5577C18.0568 22.2764 18.2148 21.8949 18.2148 21.4971V18.4971C18.2148 18.0992 18.0568 17.7177 17.7755 17.4364C17.4942 17.1551 17.1127 16.9971 16.7148 16.9971ZM14.2148 0.99707C15.5208 0.99707 16.6328 1.83207 17.0448 2.99707H18.7148C19.6431 2.99707 20.5333 3.36582 21.1897 4.0222C21.8461 4.67857 22.2148 5.56881 22.2148 6.49707V25.4971C22.2148 26.4253 21.8461 27.3156 21.1897 27.9719C20.5333 28.6283 19.6431 28.9971 18.7148 28.9971H3.71484C2.78659 28.9971 1.89635 28.6283 1.23997 27.9719C0.583593 27.3156 0.214844 26.4253 0.214844 25.4971V6.49707C0.214844 5.56881 0.583593 4.67857 1.23997 4.0222C1.89635 3.36582 2.78659 2.99707 3.71484 2.99707H5.38484C5.59185 2.412 5.97517 1.90549 6.48199 1.54731C6.98882 1.18913 7.59423 0.996891 8.21484 0.99707H14.2148ZM8.21484 2.99707C7.94963 2.99707 7.69527 3.10243 7.50774 3.28996C7.3202 3.4775 7.21484 3.73185 7.21484 3.99707C7.21484 4.26229 7.3202 4.51664 7.50774 4.70418C7.69527 4.89171 7.94963 4.99707 8.21484 4.99707H14.2148C14.4801 4.99707 14.7344 4.89171 14.922 4.70418C15.1095 4.51664 15.2148 4.26229 15.2148 3.99707C15.2148 3.73185 15.1095 3.4775 14.922 3.28996C14.7344 3.10243 14.4801 2.99707 14.2148 2.99707H8.21484ZM3.71484 4.99707C3.31702 4.99707 2.93549 5.15511 2.65418 5.43641C2.37288 5.71771 2.21484 6.09925 2.21484 6.49707V25.4971C2.21484 25.8949 2.37288 26.2764 2.65418 26.5577C2.93549 26.839 3.31702 26.9971 3.71484 26.9971H18.7148C19.1127 26.9971 19.4942 26.839 19.7755 26.5577C20.0568 26.2764 20.2148 25.8949 20.2148 25.4971V6.49707C20.2148 6.09925 20.0568 5.71771 19.7755 5.43641C19.4942 5.15511 19.1127 4.99707 18.7148 4.99707H17.0448C16.8378 5.58215 16.4545 6.08865 15.9477 6.44683C15.4409 6.80501 14.8355 6.99725 14.2148 6.99707H8.21484C7.59423 6.99725 6.98882 6.80501 6.48199 6.44683C5.97517 6.08865 5.59185 5.58215 5.38484 4.99707H3.71484Z" fill="white"/>
</svg>
