<svg width="29" height="30" viewBox="0 0 29 30" fill="none" xmlns="http://www.w3.org/2000/svg">
<path fill-rule="evenodd" clip-rule="evenodd" d="M3.48825 3.38311C3.48825 3.25896 3.53757 3.1399 3.62536 3.05211C3.71314 2.96433 3.8322 2.91501 3.95635 2.91501H19.8716C19.9957 2.91501 20.1148 2.96433 20.2026 3.05211C20.2903 3.1399 20.3397 3.25896 20.3397 3.38311V17.8678C20.3397 18.2403 20.4876 18.5974 20.751 18.8608C21.0143 19.1242 21.3715 19.2721 21.7439 19.2721C22.1164 19.2721 22.4736 19.1242 22.7369 18.8608C23.0003 18.5974 23.1482 18.2403 23.1482 17.8678V3.38311C23.1482 2.51408 22.803 1.68065 22.1885 1.06616C21.574 0.451664 20.7406 0.106445 19.8716 0.106445H3.95635C3.08732 0.106445 2.25389 0.451664 1.6394 1.06616C1.02491 1.68065 0.679688 2.51408 0.679688 3.38311V24.9154C0.679688 26.7242 2.14763 28.1921 3.95635 28.1921H9.89179C10.2642 28.1921 10.6214 28.0442 10.8848 27.7808C11.1481 27.5175 11.2961 27.1603 11.2961 26.7878C11.2961 26.4154 11.1481 26.0582 10.8848 25.7948C10.6214 25.5315 10.2642 25.3835 9.89179 25.3835H3.95635C3.8322 25.3835 3.71314 25.3342 3.62536 25.2464C3.53757 25.1587 3.48825 25.0396 3.48825 24.9154V3.38311ZM7.7011 7.59596C7.32866 7.59596 6.97148 7.74391 6.70813 8.00726C6.44477 8.27061 6.29682 8.6278 6.29682 9.00024C6.29682 9.37268 6.44477 9.72986 6.70813 9.99322C6.97148 10.2566 7.32866 10.4045 7.7011 10.4045H16.1268C16.4992 10.4045 16.8564 10.2566 17.1198 9.99322C17.3831 9.72986 17.5311 9.37268 17.5311 9.00024C17.5311 8.6278 17.3831 8.27061 17.1198 8.00726C16.8564 7.74391 16.4992 7.59596 16.1268 7.59596H7.7011ZM6.29682 14.6174C6.29682 14.2449 6.44477 13.8877 6.70813 13.6244C6.97148 13.361 7.32866 13.2131 7.7011 13.2131H11.4459C11.8183 13.2131 12.1755 13.361 12.4388 13.6244C12.7022 13.8877 12.8501 14.2449 12.8501 14.6174C12.8501 14.9898 12.7022 15.347 12.4388 15.6103C12.1755 15.8737 11.8183 16.0217 11.4459 16.0217H7.7011C7.32866 16.0217 6.97148 15.8737 6.70813 15.6103C6.44477 15.347 6.29682 14.9898 6.29682 14.6174ZM28.3422 21.24C28.4742 21.1111 28.5796 20.9575 28.6523 20.788C28.725 20.6184 28.7635 20.4362 28.7658 20.2517C28.7681 20.0672 28.734 19.8841 28.6655 19.7128C28.597 19.5415 28.4954 19.3854 28.3665 19.2534C28.2377 19.1213 28.0841 19.016 27.9145 18.9433C27.745 18.8706 27.5628 18.832 27.3783 18.8298C27.1938 18.8275 27.0107 18.8616 26.8394 18.9301C26.6681 18.9986 26.512 19.1002 26.3799 19.229L18.8418 26.5912L16.1848 23.9231C15.9191 23.6745 15.5673 23.5388 15.2034 23.5445C14.8396 23.5502 14.4922 23.697 14.2344 23.9538C13.9766 24.2106 13.8286 24.5574 13.8215 24.9212C13.8144 25.285 13.9488 25.6374 14.1964 25.9041L17.8344 29.5552C18.0953 29.8173 18.4492 29.9659 18.819 29.9687C19.1889 29.9715 19.5449 29.8283 19.8098 29.5702L28.3422 21.2381V21.24Z" fill="white"/>
</svg>
