<svg width="25" height="25" viewBox="0 0 25 25" fill="none" xmlns="http://www.w3.org/2000/svg">
<path d="M13.1563 10.7086C12.5444 10.5556 11.9325 10.2497 11.4735 9.79073C11.0146 9.63775 10.8616 9.17881 10.8616 8.87285C10.8616 8.56689 11.0146 8.10795 11.3205 7.95497C11.7795 7.64901 12.2384 7.34305 12.6974 7.49603C13.6152 7.49603 14.3801 7.95497 14.8391 8.56689L16.2159 6.73113C15.757 6.27219 15.298 5.96623 14.8391 5.66027C14.3801 5.35431 13.7682 5.20133 13.1563 5.20133V3.0596H11.3205V5.20133C10.5556 5.35431 9.79074 5.81325 9.17881 6.42517C8.56689 7.19007 8.10795 8.10795 8.26093 9.02583C8.26093 9.94372 8.56689 10.8616 9.17881 11.4735C9.94372 12.2384 11.0146 12.6974 11.9325 13.1563C12.3914 13.3093 13.0033 13.6152 13.4623 13.9212C13.7682 14.2272 13.9212 14.6861 13.9212 15.145C13.9212 15.604 13.7682 16.0629 13.4623 16.5219C13.0033 16.9808 12.3914 17.1338 11.9325 17.1338C11.3205 17.1338 10.5556 16.9808 10.0967 16.5219C9.63776 16.2159 9.17881 15.757 8.87285 15.298L7.34305 16.9808C7.80199 17.5927 8.26093 18.0517 8.87285 18.5106C9.63776 18.9695 10.5556 19.4285 11.4735 19.4285V21.4172H13.1563V19.1225C14.0742 18.9695 14.8391 18.5106 15.451 17.8987C16.2159 17.1338 16.6748 15.9099 16.6748 14.8391C16.6748 13.9212 16.3689 12.8503 15.604 12.2384C14.8391 11.4735 14.0742 11.0146 13.1563 10.7086ZM12.2384 0C5.50729 0 0 5.50729 0 12.2384C0 18.9695 5.50729 24.4768 12.2384 24.4768C18.9695 24.4768 24.4768 18.9695 24.4768 12.2384C24.4768 5.50729 18.9695 0 12.2384 0ZM12.2384 22.7941C6.42517 22.7941 1.68278 18.0517 1.68278 12.2384C1.68278 6.42517 6.42517 1.68278 12.2384 1.68278C18.0517 1.68278 22.7941 6.42517 22.7941 12.2384C22.7941 18.0517 18.0517 22.7941 12.2384 22.7941Z" fill="#217CAE"/>
</svg>
