<svg width="18" height="18" viewBox="0 0 18 18" fill="none" xmlns="http://www.w3.org/2000/svg">
<path d="M9.423 0.557409C10.1162 0.290759 10.8838 0.290759 11.577 0.557409L15.038 1.88741C15.618 2.11141 16 2.66741 16 3.28841V11.0684C16 11.1424 15.994 11.2164 15.983 11.2884C15.8892 10.2083 15.4086 9.19843 14.6296 8.44442C13.8506 7.69041 12.8256 7.24298 11.743 7.18441C11.4653 6.61952 10.9846 6.18025 10.397 5.95441L6.936 4.62441C6.32002 4.38721 5.65492 4.30613 5 4.38841V3.28841C5.00004 2.98516 5.09199 2.68905 5.26373 2.43911C5.43547 2.18918 5.67893 1.99717 5.962 1.88841L9.422 0.557409H9.423ZM14.09 2.99841C14.0665 2.93707 14.0312 2.88096 13.986 2.83329C13.9408 2.78562 13.8867 2.74731 13.8267 2.72057C13.7667 2.69382 13.702 2.67916 13.6363 2.67742C13.5707 2.67567 13.5053 2.68689 13.444 2.71041L10.678 3.77441C10.5625 3.81885 10.4345 3.81885 10.319 3.77441L7.554 2.71141C7.49267 2.68784 7.4273 2.67657 7.36162 2.67827C7.29594 2.67996 7.23124 2.69457 7.17121 2.72126C7.11117 2.74796 7.05699 2.78622 7.01174 2.83386C6.96649 2.8815 6.93107 2.93758 6.9075 2.99891C6.88393 3.06024 6.87267 3.12561 6.87436 3.19129C6.87605 3.25697 6.89066 3.32167 6.91736 3.3817C6.94405 3.44174 6.98231 3.49592 7.02995 3.54117C7.07759 3.58642 7.13367 3.62184 7.195 3.64541L9.961 4.70841C10.3076 4.84173 10.6914 4.84173 11.038 4.70841L13.804 3.64541C13.9277 3.59777 14.0274 3.50296 14.0812 3.38182C14.135 3.26069 14.1386 3.12314 14.091 2.99941L14.09 2.99841ZM10.6 7.26841C10.4446 7.10019 10.2527 6.96985 10.039 6.88741L6.577 5.55741C5.88376 5.29076 5.11624 5.29076 4.423 5.55741L0.962 6.88741C0.678769 6.99623 0.4352 7.1884 0.263448 7.43853C0.0916963 7.68866 -0.000161885 7.98499 2.14167e-07 8.28841V13.0684C4.03567e-05 13.3717 0.0919928 13.6678 0.263731 13.9177C0.43547 14.1676 0.678928 14.3596 0.962 14.4684L4.422 15.7994C5.11554 16.0663 5.88346 16.0663 6.577 15.7994L8.521 15.0514C8.04233 14.6296 7.65909 14.1105 7.39681 13.5289C7.13454 12.9473 6.99926 12.3164 7 11.6784C7 10.9374 7.18 10.2384 7.496 9.62141L6 10.1984V12.6884C6 12.821 5.94732 12.9482 5.85355 13.042C5.75979 13.1357 5.63261 13.1884 5.5 13.1884C5.36739 13.1884 5.24021 13.1357 5.14645 13.042C5.05268 12.9482 5 12.821 5 12.6884V10.1984L2.195 9.11841C2.13374 9.09477 2.07773 9.0593 2.03018 9.01402C1.98263 8.96873 1.94446 8.91453 1.91786 8.8545C1.89125 8.79446 1.87673 8.72978 1.87513 8.66413C1.87352 8.59849 1.88486 8.53317 1.9085 8.47191C1.93214 8.41065 1.96761 8.35464 2.01289 8.30709C2.05818 8.25954 2.11238 8.22137 2.17241 8.19476C2.23245 8.16816 2.29713 8.15364 2.36278 8.15204C2.42842 8.15043 2.49374 8.16177 2.555 8.18541L5.5 9.31841L8.445 8.18541C8.52547 8.15427 8.61267 8.14462 8.698 8.15741C9.25267 7.71467 9.90456 7.40998 10.6 7.26841ZM14.304 13.7734C14.8339 13.0648 15.0757 12.1817 14.9808 11.3019C14.8859 10.4221 14.4612 9.61098 13.7923 9.03169C13.1234 8.45239 12.2599 8.14796 11.3756 8.17966C10.4913 8.21136 9.65183 8.57684 9.02613 9.20254C8.40043 9.82824 8.03495 10.6677 8.00325 11.552C7.97155 12.4363 8.27598 13.2998 8.85528 13.9687C9.43457 14.6376 10.2457 15.0623 11.1255 15.1572C12.0053 15.2521 12.8883 15.0103 13.597 14.4804L16.147 17.0304C16.1934 17.0769 16.2485 17.1138 16.3092 17.139C16.3699 17.1642 16.4349 17.1771 16.5006 17.1772C16.5663 17.1772 16.6314 17.1643 16.6921 17.1392C16.7528 17.1141 16.808 17.0773 16.8545 17.0309C16.901 16.9845 16.9379 16.9294 16.9631 16.8687C16.9882 16.808 17.0012 16.743 17.0013 16.6773C17.0013 16.6116 16.9884 16.5465 16.9633 16.4858C16.9382 16.4251 16.9014 16.3699 16.855 16.3234L14.305 13.7734H14.304ZM14 11.6784C14 12.3415 13.7366 12.9773 13.2678 13.4462C12.7989 13.915 12.163 14.1784 11.5 14.1784C10.837 14.1784 10.2011 13.915 9.73223 13.4462C9.26339 12.9773 9 12.3415 9 11.6784C9 11.0154 9.26339 10.3795 9.73223 9.91064C10.2011 9.4418 10.837 9.17841 11.5 9.17841C12.163 9.17841 12.7989 9.4418 13.2678 9.91064C13.7366 10.3795 14 11.0154 14 11.6784Z" fill="white"/>
</svg>
