<svg width="20" height="18" viewBox="0 0 20 18" fill="none" xmlns="http://www.w3.org/2000/svg">
<path d="M15.01 11H14.21L13.94 10.73C14.9554 9.55495 15.5129 8.05301 15.51 6.5C15.51 2.91 12.6 0 9.01 0C5.42 0 2.51 3 2.51 6.5H0L3.84 10.5L8 6.5H4.51C4.51 5.30653 4.98411 4.16193 5.82802 3.31802C6.67193 2.47411 7.81653 2 9.01 2C10.2035 2 11.3481 2.47411 12.192 3.31802C13.0359 4.16193 13.51 5.30653 13.51 6.5C13.509 7.24877 13.3214 7.98548 12.9642 8.64358C12.6071 9.30167 12.0916 9.86041 11.4643 10.2693C10.837 10.6782 10.1178 10.9244 9.37154 10.9856C8.62527 11.0469 7.87552 10.9212 7.19 10.62L5.71 12.1C6.87603 12.7889 8.22877 13.0949 9.57778 12.9747C10.9268 12.8545 12.2041 12.3142 13.23 11.43L13.5 11.7V12.49L18.51 17.48L20 16L15.01 11Z" fill="white"/>
</svg>
